<svg xmlns="http://www.w3.org/2000/svg" width="2075.01" height="3220.421" viewBox="0 0 2075.01 3220.421">
  <g id="Group_32" data-name="Group 32" transform="translate(107.475 -614.875)">
    <g id="Group_22" data-name="Group 22" transform="translate(1103.797 648.362)">
      <path id="Path_55" data-name="Path 55" d="M195.365,347.549a14.548,14.548,0,0,0,10.894-4.7q4.506-4.7,4.507-12.708t-4.445-12.584a14.684,14.684,0,0,0-10.956-4.57,14.445,14.445,0,0,0-10.831,4.632q-4.447,4.635-4.445,12.647t4.445,12.646A14.439,14.439,0,0,0,195.365,347.549Z" fill="none" stroke="#f2af5e" stroke-miterlimit="10" stroke-width="0.25"/>
      <path id="Path_56" data-name="Path 56" d="M152.748,331.395a35.239,35.239,0,0,0,3.943,16.967,31.172,31.172,0,0,0,2.112,3.388V311.042a31.172,31.172,0,0,0-2.112,3.388A35.242,35.242,0,0,0,152.748,331.395Z" fill="none" stroke="#f2af5e" stroke-miterlimit="10" stroke-width="0.25"/>
      <path id="Path_57" data-name="Path 57" d="M169.509,217.079h0A10.705,10.705,0,0,0,158.8,227.785V243.82a79.571,79.571,0,0,1,21.411-4.562V227.785A10.705,10.705,0,0,0,169.509,217.079Z" fill="none" stroke="#f2af5e" stroke-miterlimit="10" stroke-width="0.25"/>
      <path id="Path_58" data-name="Path 58" d="M152.748,202.862a3.371,3.371,0,1,0-2.38.009v44.6q1.179-.591,2.38-1.143Z" fill="none" stroke="#f2af5e" stroke-miterlimit="10" stroke-width="0.25"/>
      <path id="Path_59" data-name="Path 59" d="M186.154,239.015c-2,0-3.977.1-5.94.243V296.83a30.115,30.115,0,0,0-16.448,5.893,32.29,32.29,0,0,0-4.963,4.684v3.635a28.254,28.254,0,0,1,8.782-8.006,29.735,29.735,0,0,1,12.629-3.923v6.114a21.082,21.082,0,0,1,5.851-6.16,30.746,30.746,0,0,1,13.324,3.781,26.428,26.428,0,0,1,10.58,11.206,41.9,41.9,0,0,1,0,34.684,26.416,26.416,0,0,1-10.58,11.206,29.463,29.463,0,0,1-10.254,3.446c-.091-.047-.192-.079-.282-.127a22.72,22.72,0,0,1-8.639-7.826v8.242a29.722,29.722,0,0,1-12.629-3.923,28.23,28.23,0,0,1-8.782-8.006v3.819a31.254,31.254,0,0,0,4.837,4.5,29.223,29.223,0,0,0,11.32,5.135H158.8v-9.635a29.644,29.644,0,0,1-6.055-11.026V365.2h-2.38V247.475a79.945,79.945,0,1,0,35.786-8.46Zm42.329,110.1A30.714,30.714,0,0,1,217.4,361.76,28.626,28.626,0,0,1,201.75,366.2a29.38,29.38,0,0,1-8.857-1.309,31.9,31.9,0,0,0,7.56-3.011,28.874,28.874,0,0,0,11.645-12.02,43.342,43.342,0,0,0,0-36.938,28.9,28.9,0,0,0-11.645-12.021,32.764,32.764,0,0,0-11.226-3.75,27.121,27.121,0,0,1,12.523-2.822,28.941,28.941,0,0,1,15.653,4.383,30.38,30.38,0,0,1,11.08,12.52,46.108,46.108,0,0,1,0,37.877Z" fill="none" stroke="#f2af5e" stroke-miterlimit="10" stroke-width="0.25"/>
      <path id="Path_60" data-name="Path 60" d="M158.8,307.407V243.82c-2.062.751-4.076,1.6-6.055,2.512v71.917A31.691,31.691,0,0,1,158.8,307.407Z" fill="none" stroke="#f2af5e" stroke-miterlimit="10" stroke-width="0.25"/>
    </g>
    <g id="Group_23" data-name="Group 23" transform="translate(551.387 744.471)">
      <path id="Path_55-2" data-name="Path 55" d="M237.87,443.7q24.153,0,41.206-17.762t17.047-48.067q0-30.3-16.813-47.6t-41.44-17.286q-24.153,0-40.968,17.52t-16.813,47.837q0,30.314,16.813,47.833T237.87,443.7Z" transform="translate(205.584 324.525)" fill="none" stroke="#f2af5e" stroke-miterlimit="10" stroke-width="0.25"/>
      <path id="Path_56-2" data-name="Path 56" d="M152.748,388.026q0,36.482,14.914,64.177a117.913,117.913,0,0,0,7.988,12.815V311.042a117.9,117.9,0,0,0-7.988,12.815Q152.746,351.561,152.748,388.026Z" transform="translate(129.509 319.102)" fill="none" stroke="#f2af5e" stroke-miterlimit="10" stroke-width="0.25"/>
      <path id="Path_57-2" data-name="Path 57" d="M199.3,217.079h0A40.493,40.493,0,0,0,158.8,257.574v60.651a300.974,300.974,0,0,1,80.986-17.256v-43.4A40.493,40.493,0,0,0,199.3,217.079Z" transform="translate(146.356 57.655)" fill="none" stroke="#f2af5e" stroke-miterlimit="10" stroke-width="0.25"/>
      <path id="Path_58-2" data-name="Path 58" d="M165.472,220.959a12.751,12.751,0,1,0-9,.034V389.705q4.46-2.236,9-4.323Z" transform="translate(116.785)" fill="none" stroke="#f2af5e" stroke-miterlimit="10" stroke-width="0.25"/>
      <path id="Path_59-2" data-name="Path 59" d="M408.613,239.015c-7.565,0-15.043.374-22.468.919V457.7q-36.408,2.667-62.214,22.29A122.142,122.142,0,0,0,305.159,497.7v13.749a106.867,106.867,0,0,1,33.217-30.282,112.471,112.471,0,0,1,47.768-14.839v23.126a79.741,79.741,0,0,1,22.131-23.3q28.493,1.9,50.4,14.3,25.8,14.683,40.018,42.386T512.9,588.437q0,37.9-14.211,65.6t-40.018,42.386a111.444,111.444,0,0,1-38.785,13.034c-.344-.178-.726-.3-1.067-.481q-20.839-11.12-32.677-29.6v31.175a112.419,112.419,0,0,1-47.768-14.838,106.776,106.776,0,0,1-33.217-30.282v14.445a118.209,118.209,0,0,0,18.3,17.021,110.53,110.53,0,0,0,42.817,19.423H305.159V679.874a112.125,112.125,0,0,1-22.9-41.705v78.145h-9v-445.3C174.219,320.689,106.2,423.087,106.2,541.429c0,167.014,135.393,302.41,302.41,302.41s302.41-135.4,302.41-302.41S575.63,239.015,408.613,239.015ZM568.72,655.458q-15.393,31.024-41.909,47.833T467.6,720.1a111.134,111.134,0,0,1-33.5-4.951,120.658,120.658,0,0,0,28.6-11.389Q491.118,687.9,506.745,658.3t15.629-69.862q0-40.243-15.629-69.854-15.631-29.594-44.047-45.469a123.926,123.926,0,0,0-42.462-14.184q20.817-10.638,47.368-10.674,32.686,0,59.207,16.578T568.72,512.19q15.387,30.791,15.391,71.518T568.72,655.458Z" transform="translate(0 118.691)" fill="none" stroke="#f2af5e" stroke-miterlimit="10" stroke-width="0.25"/>
      <path id="Path_60-2" data-name="Path 60" d="M175.651,484.334V243.82c-7.8,2.841-15.417,6.052-22.9,9.5V525.343A119.869,119.869,0,0,1,175.651,484.334Z" transform="translate(129.509 132.06)" fill="none" stroke="#f2af5e" stroke-miterlimit="10" stroke-width="0.25"/>
    </g>
    <g id="Group_27" data-name="Group 27" transform="translate(551.387 1891.471)">
      <path id="Path_55-3" data-name="Path 55" d="M237.87,443.7q24.153,0,41.206-17.762t17.047-48.067q0-30.3-16.813-47.6t-41.44-17.286q-24.153,0-40.968,17.52t-16.813,47.837q0,30.314,16.813,47.833T237.87,443.7Z" transform="translate(205.584 324.525)" fill="none" stroke="#f2af5e" stroke-miterlimit="10" stroke-width="0.25"/>
      <path id="Path_56-3" data-name="Path 56" d="M152.748,388.026q0,36.482,14.914,64.177a117.913,117.913,0,0,0,7.988,12.815V311.042a117.9,117.9,0,0,0-7.988,12.815Q152.746,351.561,152.748,388.026Z" transform="translate(129.509 319.102)" fill="none" stroke="#f2af5e" stroke-miterlimit="10" stroke-width="0.25"/>
      <path id="Path_57-3" data-name="Path 57" d="M199.3,217.079h0A40.493,40.493,0,0,0,158.8,257.574v60.651a300.974,300.974,0,0,1,80.986-17.256v-43.4A40.493,40.493,0,0,0,199.3,217.079Z" transform="translate(146.356 57.655)" fill="none" stroke="#f2af5e" stroke-miterlimit="10" stroke-width="0.25"/>
      <path id="Path_58-3" data-name="Path 58" d="M165.472,220.959a12.751,12.751,0,1,0-9,.034V389.705q4.46-2.236,9-4.323Z" transform="translate(116.785)" fill="none" stroke="#f2af5e" stroke-miterlimit="10" stroke-width="0.25"/>
      <path id="Path_59-3" data-name="Path 59" d="M408.613,239.015c-7.565,0-15.043.374-22.468.919V457.7q-36.408,2.667-62.214,22.29A122.142,122.142,0,0,0,305.159,497.7v13.749a106.867,106.867,0,0,1,33.217-30.282,112.471,112.471,0,0,1,47.768-14.839v23.126a79.741,79.741,0,0,1,22.131-23.3q28.493,1.9,50.4,14.3,25.8,14.683,40.018,42.386T512.9,588.437q0,37.9-14.211,65.6t-40.018,42.386a111.444,111.444,0,0,1-38.785,13.034c-.344-.178-.726-.3-1.067-.481q-20.839-11.12-32.677-29.6v31.175a112.419,112.419,0,0,1-47.768-14.838,106.776,106.776,0,0,1-33.217-30.282v14.445a118.209,118.209,0,0,0,18.3,17.021,110.53,110.53,0,0,0,42.817,19.423H305.159V679.874a112.125,112.125,0,0,1-22.9-41.705v78.145h-9v-445.3C174.219,320.689,106.2,423.087,106.2,541.429c0,167.014,135.393,302.41,302.41,302.41s302.41-135.4,302.41-302.41S575.63,239.015,408.613,239.015ZM568.72,655.458q-15.393,31.024-41.909,47.833T467.6,720.1a111.134,111.134,0,0,1-33.5-4.951,120.658,120.658,0,0,0,28.6-11.389Q491.118,687.9,506.745,658.3t15.629-69.862q0-40.243-15.629-69.854-15.631-29.594-44.047-45.469a123.926,123.926,0,0,0-42.462-14.184q20.817-10.638,47.368-10.674,32.686,0,59.207,16.578T568.72,512.19q15.387,30.791,15.391,71.518T568.72,655.458Z" transform="translate(0 118.691)" fill="none" stroke="#f2af5e" stroke-miterlimit="10" stroke-width="0.25"/>
      <path id="Path_60-3" data-name="Path 60" d="M175.651,484.334V243.82c-7.8,2.841-15.417,6.052-22.9,9.5V525.343A119.869,119.869,0,0,1,175.651,484.334Z" transform="translate(129.509 132.06)" fill="none" stroke="#f2af5e" stroke-miterlimit="10" stroke-width="0.25"/>
    </g>
    <g id="Group_21" data-name="Group 21" transform="translate(1256.387 987.556)">
      <path id="Path_55-4" data-name="Path 55" d="M237.87,443.7q24.153,0,41.206-17.762t17.047-48.067q0-30.3-16.813-47.6t-41.44-17.286q-24.153,0-40.968,17.52t-16.813,47.837q0,30.314,16.813,47.833T237.87,443.7Z" transform="translate(205.584 324.525)" fill="none" stroke="#f2af5e" stroke-miterlimit="10" stroke-width="0.25"/>
      <path id="Path_56-4" data-name="Path 56" d="M152.748,388.026q0,36.482,14.914,64.177a117.913,117.913,0,0,0,7.988,12.815V311.042a117.9,117.9,0,0,0-7.988,12.815Q152.746,351.561,152.748,388.026Z" transform="translate(129.509 319.102)" fill="none" stroke="#f2af5e" stroke-miterlimit="10" stroke-width="0.25"/>
      <path id="Path_57-4" data-name="Path 57" d="M199.3,217.079h0A40.493,40.493,0,0,0,158.8,257.574v60.651a300.974,300.974,0,0,1,80.986-17.256v-43.4A40.493,40.493,0,0,0,199.3,217.079Z" transform="translate(146.356 57.655)" fill="none" stroke="#f2af5e" stroke-miterlimit="10" stroke-width="0.25"/>
      <path id="Path_58-4" data-name="Path 58" d="M165.472,220.959a12.751,12.751,0,1,0-9,.034V389.705q4.46-2.236,9-4.323Z" transform="translate(116.785)" fill="none" stroke="#f2af5e" stroke-miterlimit="10" stroke-width="0.25"/>
      <path id="Path_59-4" data-name="Path 59" d="M408.613,239.015c-7.565,0-15.043.374-22.468.919V457.7q-36.408,2.667-62.214,22.29A122.142,122.142,0,0,0,305.159,497.7v13.749a106.867,106.867,0,0,1,33.217-30.282,112.471,112.471,0,0,1,47.768-14.839v23.126a79.741,79.741,0,0,1,22.131-23.3q28.493,1.9,50.4,14.3,25.8,14.683,40.018,42.386T512.9,588.437q0,37.9-14.211,65.6t-40.018,42.386a111.444,111.444,0,0,1-38.785,13.034c-.344-.178-.726-.3-1.067-.481q-20.839-11.12-32.677-29.6v31.175a112.419,112.419,0,0,1-47.768-14.838,106.776,106.776,0,0,1-33.217-30.282v14.445a118.209,118.209,0,0,0,18.3,17.021,110.53,110.53,0,0,0,42.817,19.423H305.159V679.874a112.125,112.125,0,0,1-22.9-41.705v78.145h-9v-445.3C174.219,320.689,106.2,423.087,106.2,541.429c0,167.014,135.393,302.41,302.41,302.41s302.41-135.4,302.41-302.41S575.63,239.015,408.613,239.015ZM568.72,655.458q-15.393,31.024-41.909,47.833T467.6,720.1a111.134,111.134,0,0,1-33.5-4.951,120.658,120.658,0,0,0,28.6-11.389Q491.118,687.9,506.745,658.3t15.629-69.862q0-40.243-15.629-69.854-15.631-29.594-44.047-45.469a123.926,123.926,0,0,0-42.462-14.184q20.817-10.638,47.368-10.674,32.686,0,59.207,16.578T568.72,512.19q15.387,30.791,15.391,71.518T568.72,655.458Z" transform="translate(0 118.691)" fill="none" stroke="#f2af5e" stroke-miterlimit="10" stroke-width="0.25"/>
      <path id="Path_60-4" data-name="Path 60" d="M175.651,484.334V243.82c-7.8,2.841-15.417,6.052-22.9,9.5V525.343A119.869,119.869,0,0,1,175.651,484.334Z" transform="translate(129.509 132.06)" fill="none" stroke="#f2af5e" stroke-miterlimit="10" stroke-width="0.25"/>
    </g>
    <g id="Group_25" data-name="Group 25" transform="translate(1256.387 2263.556)">
      <path id="Path_55-5" data-name="Path 55" d="M237.87,443.7q24.153,0,41.206-17.762t17.047-48.067q0-30.3-16.813-47.6t-41.44-17.286q-24.153,0-40.968,17.52t-16.813,47.837q0,30.314,16.813,47.833T237.87,443.7Z" transform="translate(205.584 324.525)" fill="none" stroke="#f2af5e" stroke-miterlimit="10" stroke-width="0.25"/>
      <path id="Path_56-5" data-name="Path 56" d="M152.748,388.026q0,36.482,14.914,64.177a117.913,117.913,0,0,0,7.988,12.815V311.042a117.9,117.9,0,0,0-7.988,12.815Q152.746,351.561,152.748,388.026Z" transform="translate(129.509 319.102)" fill="none" stroke="#f2af5e" stroke-miterlimit="10" stroke-width="0.25"/>
      <path id="Path_57-5" data-name="Path 57" d="M199.3,217.079h0A40.493,40.493,0,0,0,158.8,257.574v60.651a300.974,300.974,0,0,1,80.986-17.256v-43.4A40.493,40.493,0,0,0,199.3,217.079Z" transform="translate(146.356 57.655)" fill="none" stroke="#f2af5e" stroke-miterlimit="10" stroke-width="0.25"/>
      <path id="Path_58-5" data-name="Path 58" d="M165.472,220.959a12.751,12.751,0,1,0-9,.034V389.705q4.46-2.236,9-4.323Z" transform="translate(116.785)" fill="none" stroke="#f2af5e" stroke-miterlimit="10" stroke-width="0.25"/>
      <path id="Path_59-5" data-name="Path 59" d="M408.613,239.015c-7.565,0-15.043.374-22.468.919V457.7q-36.408,2.667-62.214,22.29A122.142,122.142,0,0,0,305.159,497.7v13.749a106.867,106.867,0,0,1,33.217-30.282,112.471,112.471,0,0,1,47.768-14.839v23.126a79.741,79.741,0,0,1,22.131-23.3q28.493,1.9,50.4,14.3,25.8,14.683,40.018,42.386T512.9,588.437q0,37.9-14.211,65.6t-40.018,42.386a111.444,111.444,0,0,1-38.785,13.034c-.344-.178-.726-.3-1.067-.481q-20.839-11.12-32.677-29.6v31.175a112.419,112.419,0,0,1-47.768-14.838,106.776,106.776,0,0,1-33.217-30.282v14.445a118.209,118.209,0,0,0,18.3,17.021,110.53,110.53,0,0,0,42.817,19.423H305.159V679.874a112.125,112.125,0,0,1-22.9-41.705v78.145h-9v-445.3C174.219,320.689,106.2,423.087,106.2,541.429c0,167.014,135.393,302.41,302.41,302.41s302.41-135.4,302.41-302.41S575.63,239.015,408.613,239.015ZM568.72,655.458q-15.393,31.024-41.909,47.833T467.6,720.1a111.134,111.134,0,0,1-33.5-4.951,120.658,120.658,0,0,0,28.6-11.389Q491.118,687.9,506.745,658.3t15.629-69.862q0-40.243-15.629-69.854-15.631-29.594-44.047-45.469a123.926,123.926,0,0,0-42.462-14.184q20.817-10.638,47.368-10.674,32.686,0,59.207,16.578T568.72,512.19q15.387,30.791,15.391,71.518T568.72,655.458Z" transform="translate(0 118.691)" fill="none" stroke="#f2af5e" stroke-miterlimit="10" stroke-width="0.25"/>
      <path id="Path_60-5" data-name="Path 60" d="M175.651,484.334V243.82c-7.8,2.841-15.417,6.052-22.9,9.5V525.343A119.869,119.869,0,0,1,175.651,484.334Z" transform="translate(129.509 132.06)" fill="none" stroke="#f2af5e" stroke-miterlimit="10" stroke-width="0.25"/>
    </g>
    <g id="Group_19" data-name="Group 19" transform="translate(-71.045 1269.362)">
      <path id="Path_55-6" data-name="Path 55" d="M195.365,347.549a14.548,14.548,0,0,0,10.894-4.7q4.506-4.7,4.507-12.708t-4.445-12.584a14.684,14.684,0,0,0-10.956-4.57,14.445,14.445,0,0,0-10.831,4.632q-4.447,4.635-4.445,12.647t4.445,12.646A14.439,14.439,0,0,0,195.365,347.549Z" fill="none" stroke="#f2af5e" stroke-miterlimit="10" stroke-width="0.25"/>
      <path id="Path_56-6" data-name="Path 56" d="M152.748,331.395a35.239,35.239,0,0,0,3.943,16.967,31.172,31.172,0,0,0,2.112,3.388V311.042a31.172,31.172,0,0,0-2.112,3.388A35.242,35.242,0,0,0,152.748,331.395Z" fill="none" stroke="#f2af5e" stroke-miterlimit="10" stroke-width="0.25"/>
      <path id="Path_57-6" data-name="Path 57" d="M169.509,217.079h0A10.705,10.705,0,0,0,158.8,227.785V243.82a79.571,79.571,0,0,1,21.411-4.562V227.785A10.705,10.705,0,0,0,169.509,217.079Z" fill="none" stroke="#f2af5e" stroke-miterlimit="10" stroke-width="0.25"/>
      <path id="Path_58-6" data-name="Path 58" d="M152.748,202.862a3.371,3.371,0,1,0-2.38.009v44.6q1.179-.591,2.38-1.143Z" fill="none" stroke="#f2af5e" stroke-miterlimit="10" stroke-width="0.25"/>
      <path id="Path_59-6" data-name="Path 59" d="M186.154,239.015c-2,0-3.977.1-5.94.243V296.83a30.115,30.115,0,0,0-16.448,5.893,32.29,32.29,0,0,0-4.963,4.684v3.635a28.254,28.254,0,0,1,8.782-8.006,29.735,29.735,0,0,1,12.629-3.923v6.114a21.082,21.082,0,0,1,5.851-6.16,30.746,30.746,0,0,1,13.324,3.781,26.428,26.428,0,0,1,10.58,11.206,41.9,41.9,0,0,1,0,34.684,26.416,26.416,0,0,1-10.58,11.206,29.463,29.463,0,0,1-10.254,3.446c-.091-.047-.192-.079-.282-.127a22.72,22.72,0,0,1-8.639-7.826v8.242a29.722,29.722,0,0,1-12.629-3.923,28.23,28.23,0,0,1-8.782-8.006v3.819a31.254,31.254,0,0,0,4.837,4.5,29.223,29.223,0,0,0,11.32,5.135H158.8v-9.635a29.644,29.644,0,0,1-6.055-11.026V365.2h-2.38V247.475a79.945,79.945,0,1,0,35.786-8.46Zm42.329,110.1A30.714,30.714,0,0,1,217.4,361.76,28.626,28.626,0,0,1,201.75,366.2a29.38,29.38,0,0,1-8.857-1.309,31.9,31.9,0,0,0,7.56-3.011,28.874,28.874,0,0,0,11.645-12.02,43.342,43.342,0,0,0,0-36.938,28.9,28.9,0,0,0-11.645-12.021,32.764,32.764,0,0,0-11.226-3.75,27.121,27.121,0,0,1,12.523-2.822,28.941,28.941,0,0,1,15.653,4.383,30.38,30.38,0,0,1,11.08,12.52,46.108,46.108,0,0,1,0,37.877Z" fill="none" stroke="#f2af5e" stroke-miterlimit="10" stroke-width="0.25"/>
      <path id="Path_60-6" data-name="Path 60" d="M158.8,307.407V243.82c-2.062.751-4.076,1.6-6.055,2.512v71.917A31.691,31.691,0,0,1,158.8,307.407Z" fill="none" stroke="#f2af5e" stroke-miterlimit="10" stroke-width="0.25"/>
    </g>
    <g id="Group_28" data-name="Group 28" transform="translate(-71.045 2621.362)">
      <path id="Path_55-7" data-name="Path 55" d="M195.365,347.549a14.548,14.548,0,0,0,10.894-4.7q4.506-4.7,4.507-12.708t-4.445-12.584a14.684,14.684,0,0,0-10.956-4.57,14.445,14.445,0,0,0-10.831,4.632q-4.447,4.635-4.445,12.647t4.445,12.646A14.439,14.439,0,0,0,195.365,347.549Z" fill="none" stroke="#f2af5e" stroke-miterlimit="10" stroke-width="0.25"/>
      <path id="Path_56-7" data-name="Path 56" d="M152.748,331.395a35.239,35.239,0,0,0,3.943,16.967,31.172,31.172,0,0,0,2.112,3.388V311.042a31.172,31.172,0,0,0-2.112,3.388A35.242,35.242,0,0,0,152.748,331.395Z" fill="none" stroke="#f2af5e" stroke-miterlimit="10" stroke-width="0.25"/>
      <path id="Path_57-7" data-name="Path 57" d="M169.509,217.079h0A10.705,10.705,0,0,0,158.8,227.785V243.82a79.571,79.571,0,0,1,21.411-4.562V227.785A10.705,10.705,0,0,0,169.509,217.079Z" fill="none" stroke="#f2af5e" stroke-miterlimit="10" stroke-width="0.25"/>
      <path id="Path_58-7" data-name="Path 58" d="M152.748,202.862a3.371,3.371,0,1,0-2.38.009v44.6q1.179-.591,2.38-1.143Z" fill="none" stroke="#f2af5e" stroke-miterlimit="10" stroke-width="0.25"/>
      <path id="Path_59-7" data-name="Path 59" d="M186.154,239.015c-2,0-3.977.1-5.94.243V296.83a30.115,30.115,0,0,0-16.448,5.893,32.29,32.29,0,0,0-4.963,4.684v3.635a28.254,28.254,0,0,1,8.782-8.006,29.735,29.735,0,0,1,12.629-3.923v6.114a21.082,21.082,0,0,1,5.851-6.16,30.746,30.746,0,0,1,13.324,3.781,26.428,26.428,0,0,1,10.58,11.206,41.9,41.9,0,0,1,0,34.684,26.416,26.416,0,0,1-10.58,11.206,29.463,29.463,0,0,1-10.254,3.446c-.091-.047-.192-.079-.282-.127a22.72,22.72,0,0,1-8.639-7.826v8.242a29.722,29.722,0,0,1-12.629-3.923,28.23,28.23,0,0,1-8.782-8.006v3.819a31.254,31.254,0,0,0,4.837,4.5,29.223,29.223,0,0,0,11.32,5.135H158.8v-9.635a29.644,29.644,0,0,1-6.055-11.026V365.2h-2.38V247.475a79.945,79.945,0,1,0,35.786-8.46Zm42.329,110.1A30.714,30.714,0,0,1,217.4,361.76,28.626,28.626,0,0,1,201.75,366.2a29.38,29.38,0,0,1-8.857-1.309,31.9,31.9,0,0,0,7.56-3.011,28.874,28.874,0,0,0,11.645-12.02,43.342,43.342,0,0,0,0-36.938,28.9,28.9,0,0,0-11.645-12.021,32.764,32.764,0,0,0-11.226-3.75,27.121,27.121,0,0,1,12.523-2.822,28.941,28.941,0,0,1,15.653,4.383,30.38,30.38,0,0,1,11.08,12.52,46.108,46.108,0,0,1,0,37.877Z" fill="none" stroke="#f2af5e" stroke-miterlimit="10" stroke-width="0.25"/>
      <path id="Path_60-7" data-name="Path 60" d="M158.8,307.407V243.82c-2.062.751-4.076,1.6-6.055,2.512v71.917A31.691,31.691,0,0,1,158.8,307.407Z" fill="none" stroke="#f2af5e" stroke-miterlimit="10" stroke-width="0.25"/>
    </g>
    <g id="Group_20" data-name="Group 20" transform="translate(-213.553 418.642)">
      <path id="Path_55-8" data-name="Path 55" d="M237.87,443.7q24.153,0,41.206-17.762t17.047-48.067q0-30.3-16.813-47.6t-41.44-17.286q-24.153,0-40.968,17.52t-16.813,47.837q0,30.314,16.813,47.833T237.87,443.7Z" transform="translate(205.584 324.525)" fill="none" stroke="#f2af5e" stroke-miterlimit="10" stroke-width="0.25"/>
      <path id="Path_56-8" data-name="Path 56" d="M152.748,388.026q0,36.482,14.914,64.177a117.913,117.913,0,0,0,7.988,12.815V311.042a117.9,117.9,0,0,0-7.988,12.815Q152.746,351.561,152.748,388.026Z" transform="translate(129.509 319.102)" fill="none" stroke="#f2af5e" stroke-miterlimit="10" stroke-width="0.25"/>
      <path id="Path_57-8" data-name="Path 57" d="M199.3,217.079h0A40.493,40.493,0,0,0,158.8,257.574v60.651a300.974,300.974,0,0,1,80.986-17.256v-43.4A40.493,40.493,0,0,0,199.3,217.079Z" transform="translate(146.356 57.655)" fill="none" stroke="#f2af5e" stroke-miterlimit="10" stroke-width="0.25"/>
      <path id="Path_58-8" data-name="Path 58" d="M165.472,220.959a12.751,12.751,0,1,0-9,.034V389.705q4.46-2.236,9-4.323Z" transform="translate(116.785)" fill="none" stroke="#f2af5e" stroke-miterlimit="10" stroke-width="0.25"/>
      <path id="Path_59-8" data-name="Path 59" d="M408.613,239.015c-7.565,0-15.043.374-22.468.919V457.7q-36.408,2.667-62.214,22.29A122.142,122.142,0,0,0,305.159,497.7v13.749a106.867,106.867,0,0,1,33.217-30.282,112.471,112.471,0,0,1,47.768-14.839v23.126a79.741,79.741,0,0,1,22.131-23.3q28.493,1.9,50.4,14.3,25.8,14.683,40.018,42.386T512.9,588.437q0,37.9-14.211,65.6t-40.018,42.386a111.444,111.444,0,0,1-38.785,13.034c-.344-.178-.726-.3-1.067-.481q-20.839-11.12-32.677-29.6v31.175a112.419,112.419,0,0,1-47.768-14.838,106.776,106.776,0,0,1-33.217-30.282v14.445a118.209,118.209,0,0,0,18.3,17.021,110.53,110.53,0,0,0,42.817,19.423H305.159V679.874a112.125,112.125,0,0,1-22.9-41.705v78.145h-9v-445.3C174.219,320.689,106.2,423.087,106.2,541.429c0,167.014,135.393,302.41,302.41,302.41s302.41-135.4,302.41-302.41S575.63,239.015,408.613,239.015ZM568.72,655.458q-15.393,31.024-41.909,47.833T467.6,720.1a111.134,111.134,0,0,1-33.5-4.951,120.658,120.658,0,0,0,28.6-11.389Q491.118,687.9,506.745,658.3t15.629-69.862q0-40.243-15.629-69.854-15.631-29.594-44.047-45.469a123.926,123.926,0,0,0-42.462-14.184q20.817-10.638,47.368-10.674,32.686,0,59.207,16.578T568.72,512.19q15.387,30.791,15.391,71.518T568.72,655.458Z" transform="translate(0 118.691)" fill="none" stroke="#f2af5e" stroke-miterlimit="10" stroke-width="0.25"/>
      <path id="Path_60-8" data-name="Path 60" d="M175.651,484.334V243.82c-7.8,2.841-15.417,6.052-22.9,9.5V525.343A119.869,119.869,0,0,1,175.651,484.334Z" transform="translate(129.509 132.06)" fill="none" stroke="#f2af5e" stroke-miterlimit="10" stroke-width="0.25"/>
    </g>
    <g id="Group_24" data-name="Group 24" transform="translate(-213.553 1704.642)">
      <path id="Path_55-9" data-name="Path 55" d="M237.87,443.7q24.153,0,41.206-17.762t17.047-48.067q0-30.3-16.813-47.6t-41.44-17.286q-24.153,0-40.968,17.52t-16.813,47.837q0,30.314,16.813,47.833T237.87,443.7Z" transform="translate(205.584 324.525)" fill="none" stroke="#f2af5e" stroke-miterlimit="10" stroke-width="0.25"/>
      <path id="Path_56-9" data-name="Path 56" d="M152.748,388.026q0,36.482,14.914,64.177a117.913,117.913,0,0,0,7.988,12.815V311.042a117.9,117.9,0,0,0-7.988,12.815Q152.746,351.561,152.748,388.026Z" transform="translate(129.509 319.102)" fill="none" stroke="#f2af5e" stroke-miterlimit="10" stroke-width="0.25"/>
      <path id="Path_57-9" data-name="Path 57" d="M199.3,217.079h0A40.493,40.493,0,0,0,158.8,257.574v60.651a300.974,300.974,0,0,1,80.986-17.256v-43.4A40.493,40.493,0,0,0,199.3,217.079Z" transform="translate(146.356 57.655)" fill="none" stroke="#f2af5e" stroke-miterlimit="10" stroke-width="0.25"/>
      <path id="Path_58-9" data-name="Path 58" d="M165.472,220.959a12.751,12.751,0,1,0-9,.034V389.705q4.46-2.236,9-4.323Z" transform="translate(116.785)" fill="none" stroke="#f2af5e" stroke-miterlimit="10" stroke-width="0.25"/>
      <path id="Path_59-9" data-name="Path 59" d="M408.613,239.015c-7.565,0-15.043.374-22.468.919V457.7q-36.408,2.667-62.214,22.29A122.142,122.142,0,0,0,305.159,497.7v13.749a106.867,106.867,0,0,1,33.217-30.282,112.471,112.471,0,0,1,47.768-14.839v23.126a79.741,79.741,0,0,1,22.131-23.3q28.493,1.9,50.4,14.3,25.8,14.683,40.018,42.386T512.9,588.437q0,37.9-14.211,65.6t-40.018,42.386a111.444,111.444,0,0,1-38.785,13.034c-.344-.178-.726-.3-1.067-.481q-20.839-11.12-32.677-29.6v31.175a112.419,112.419,0,0,1-47.768-14.838,106.776,106.776,0,0,1-33.217-30.282v14.445a118.209,118.209,0,0,0,18.3,17.021,110.53,110.53,0,0,0,42.817,19.423H305.159V679.874a112.125,112.125,0,0,1-22.9-41.705v78.145h-9v-445.3C174.219,320.689,106.2,423.087,106.2,541.429c0,167.014,135.393,302.41,302.41,302.41s302.41-135.4,302.41-302.41S575.63,239.015,408.613,239.015ZM568.72,655.458q-15.393,31.024-41.909,47.833T467.6,720.1a111.134,111.134,0,0,1-33.5-4.951,120.658,120.658,0,0,0,28.6-11.389Q491.118,687.9,506.745,658.3t15.629-69.862q0-40.243-15.629-69.854-15.631-29.594-44.047-45.469a123.926,123.926,0,0,0-42.462-14.184q20.817-10.638,47.368-10.674,32.686,0,59.207,16.578T568.72,512.19q15.387,30.791,15.391,71.518T568.72,655.458Z" transform="translate(0 118.691)" fill="none" stroke="#f2af5e" stroke-miterlimit="10" stroke-width="0.25"/>
      <path id="Path_60-9" data-name="Path 60" d="M175.651,484.334V243.82c-7.8,2.841-15.417,6.052-22.9,9.5V525.343A119.869,119.869,0,0,1,175.651,484.334Z" transform="translate(129.509 132.06)" fill="none" stroke="#f2af5e" stroke-miterlimit="10" stroke-width="0.25"/>
    </g>
    <g id="Group_29" data-name="Group 29" transform="translate(-1.023 2872.642)">
      <path id="Path_55-10" data-name="Path 55" d="M237.87,443.7q24.153,0,41.206-17.762t17.047-48.067q0-30.3-16.813-47.6t-41.44-17.286q-24.153,0-40.968,17.52t-16.813,47.837q0,30.314,16.813,47.833T237.87,443.7Z" transform="translate(205.584 324.525)" fill="none" stroke="#f2af5e" stroke-miterlimit="10" stroke-width="0.25"/>
      <path id="Path_56-10" data-name="Path 56" d="M152.748,388.026q0,36.482,14.914,64.177a117.913,117.913,0,0,0,7.988,12.815V311.042a117.9,117.9,0,0,0-7.988,12.815Q152.746,351.561,152.748,388.026Z" transform="translate(129.509 319.102)" fill="none" stroke="#f2af5e" stroke-miterlimit="10" stroke-width="0.25"/>
      <path id="Path_57-10" data-name="Path 57" d="M199.3,217.079h0A40.493,40.493,0,0,0,158.8,257.574v60.651a300.974,300.974,0,0,1,80.986-17.256v-43.4A40.493,40.493,0,0,0,199.3,217.079Z" transform="translate(146.356 57.655)" fill="none" stroke="#f2af5e" stroke-miterlimit="10" stroke-width="0.25"/>
      <path id="Path_58-10" data-name="Path 58" d="M165.472,220.959a12.751,12.751,0,1,0-9,.034V389.705q4.46-2.236,9-4.323Z" transform="translate(116.785)" fill="none" stroke="#f2af5e" stroke-miterlimit="10" stroke-width="0.25"/>
      <path id="Path_59-10" data-name="Path 59" d="M408.613,239.015c-7.565,0-15.043.374-22.468.919V457.7q-36.408,2.667-62.214,22.29A122.142,122.142,0,0,0,305.159,497.7v13.749a106.867,106.867,0,0,1,33.217-30.282,112.471,112.471,0,0,1,47.768-14.839v23.126a79.741,79.741,0,0,1,22.131-23.3q28.493,1.9,50.4,14.3,25.8,14.683,40.018,42.386T512.9,588.437q0,37.9-14.211,65.6t-40.018,42.386a111.444,111.444,0,0,1-38.785,13.034c-.344-.178-.726-.3-1.067-.481q-20.839-11.12-32.677-29.6v31.175a112.419,112.419,0,0,1-47.768-14.838,106.776,106.776,0,0,1-33.217-30.282v14.445a118.209,118.209,0,0,0,18.3,17.021,110.53,110.53,0,0,0,42.817,19.423H305.159V679.874a112.125,112.125,0,0,1-22.9-41.705v78.145h-9v-445.3C174.219,320.689,106.2,423.087,106.2,541.429c0,167.014,135.393,302.41,302.41,302.41s302.41-135.4,302.41-302.41S575.63,239.015,408.613,239.015ZM568.72,655.458q-15.393,31.024-41.909,47.833T467.6,720.1a111.134,111.134,0,0,1-33.5-4.951,120.658,120.658,0,0,0,28.6-11.389Q491.118,687.9,506.745,658.3t15.629-69.862q0-40.243-15.629-69.854-15.631-29.594-44.047-45.469a123.926,123.926,0,0,0-42.462-14.184q20.817-10.638,47.368-10.674,32.686,0,59.207,16.578T568.72,512.19q15.387,30.791,15.391,71.518T568.72,655.458Z" transform="translate(0 118.691)" fill="none" stroke="#f2af5e" stroke-miterlimit="10" stroke-width="0.25"/>
      <path id="Path_60-10" data-name="Path 60" d="M175.651,484.334V243.82c-7.8,2.841-15.417,6.052-22.9,9.5V525.343A119.869,119.869,0,0,1,175.651,484.334Z" transform="translate(129.509 132.06)" fill="none" stroke="#f2af5e" stroke-miterlimit="10" stroke-width="0.25"/>
    </g>
  </g>
</svg>
