<svg xmlns="http://www.w3.org/2000/svg" viewBox="0 0 72.4 145.47"><defs><style>.cls-1{fill:#fff;}</style></defs><g id="Layer_2" data-name="Layer 2"><g id="Layer_1-2" data-name="Layer 1"><path class="cls-1" d="M39.24,49.93a4.78,4.78,0,0,0,3.6-1.55,5.81,5.81,0,0,0,1.49-4.2A5.69,5.69,0,0,0,42.86,40a4.85,4.85,0,0,0-3.62-1.51,4.77,4.77,0,0,0-3.58,1.53,5.77,5.77,0,0,0-1.46,4.18,5.76,5.76,0,0,0,1.46,4.17A4.77,4.77,0,0,0,39.24,49.93Z"/><path class="cls-1" d="M25.17,44.6a11.61,11.61,0,0,0,1.3,5.6,8.45,8.45,0,0,0,.7,1.12V37.88a9,9,0,0,0-.7,1.11A11.65,11.65,0,0,0,25.17,44.6Z"/><path class="cls-1" d="M30.7,6.84h0a3.54,3.54,0,0,0-3.53,3.54v5.29a26.26,26.26,0,0,1,7.07-1.5V10.38A3.55,3.55,0,0,0,30.7,6.84Z"/><path class="cls-1" d="M25.17,2.15a1.12,1.12,0,1,0-.79,0V16.88l.79-.38Z"/><path class="cls-1" d="M36.2,14.09c-.66,0-1.32,0-2,.08v19a9.76,9.76,0,0,0-7.07,3.5v1.2a9.2,9.2,0,0,1,2.9-2.65,9.8,9.8,0,0,1,4.17-1.29v2a6.89,6.89,0,0,1,1.93-2,10.18,10.18,0,0,1,4.4,1.25,8.68,8.68,0,0,1,3.49,3.7A12.36,12.36,0,0,1,45.3,44.6a12.34,12.34,0,0,1-1.24,5.72A8.7,8.7,0,0,1,40.57,54a9.83,9.83,0,0,1-3.39,1.13l-.09,0a7.51,7.51,0,0,1-2.85-2.58v2.72A9.68,9.68,0,0,1,30.07,54a9.05,9.05,0,0,1-2.9-2.64v1.26a9.83,9.83,0,0,0,1.59,1.49,9.65,9.65,0,0,0,3.74,1.69H27.17V52.58a9.6,9.6,0,0,1-2-3.64v6.82h-.79V16.88A26.41,26.41,0,1,0,36.2,14.09Zm14,36.36a10.26,10.26,0,0,1-3.66,4.18,9.54,9.54,0,0,1-5.17,1.46,9.69,9.69,0,0,1-2.93-.43,10.68,10.68,0,0,0,2.5-1,9.63,9.63,0,0,0,3.85-4,12.92,12.92,0,0,0,1.36-6.1,12.86,12.86,0,0,0-1.36-6.1,9.57,9.57,0,0,0-3.85-4,10.77,10.77,0,0,0-3.71-1.24,9,9,0,0,1,4.14-.93,9.61,9.61,0,0,1,5.17,1.44,10.14,10.14,0,0,1,3.66,4.14,13.85,13.85,0,0,1,1.34,6.24A14,14,0,0,1,50.18,50.45Z"/><path class="cls-1" d="M27.17,36.68v-21c-.69.25-1.35.53-2,.83V40.26A10.22,10.22,0,0,1,27.17,36.68Z"/><path class="cls-1" d="M0,102.38V86.14a.5.5,0,0,1,.57-.57H7.08a4.57,4.57,0,0,1,3.3,1.13A4.36,4.36,0,0,1,11.54,90v1.11A2.83,2.83,0,0,1,9.4,94a2.83,2.83,0,0,1,1.74.88,3,3,0,0,1,.64,2v1.62a4.32,4.32,0,0,1-1.16,3.25A4.49,4.49,0,0,1,7.35,103H.59A.5.5,0,0,1,0,102.38Zm3.74-9.76H6.51a1.87,1.87,0,0,0,1.27-.36,1.55,1.55,0,0,0,.41-1.2V90a1.57,1.57,0,0,0-.39-1.2,1.79,1.79,0,0,0-1.26-.37H3.76a.27.27,0,0,0-.3.3v3.6A.26.26,0,0,0,3.76,92.62Zm0,7.47h3a1.87,1.87,0,0,0,1.29-.37,1.57,1.57,0,0,0,.39-1.2V97a1.5,1.5,0,0,0-.41-1.19,2,2,0,0,0-1.32-.35h-3a.27.27,0,0,0-.3.3v4.08A.27.27,0,0,0,3.76,100.09Z"/><path class="cls-1" d="M17.89,103H15.6a.5.5,0,0,1-.57-.57V86.14a.5.5,0,0,1,.57-.57H22a4.49,4.49,0,0,1,3.3,1.16A4.36,4.36,0,0,1,26.52,90v2.11q0,3.06-2.41,4v.11l2.9,6c.16.43,0,.65-.46.65H24.36a1.74,1.74,0,0,1-.71-.11.79.79,0,0,1-.35-.46l-2.7-5.84H18.79q-.33,0-.33.3v5.54A.5.5,0,0,1,17.89,103Zm.87-9.16h2.65a1.87,1.87,0,0,0,1.27-.37,1.5,1.5,0,0,0,.41-1.18v-2.1a1.6,1.6,0,0,0-.41-1.22,1.82,1.82,0,0,0-1.27-.38H18.76a.27.27,0,0,0-.3.3v4.65A.27.27,0,0,0,18.76,93.79Z"/><path class="cls-1" d="M31.63,103H29c-.32,0-.43-.19-.32-.57L33,86.14a.77.77,0,0,1,.81-.57h3.6a.73.73,0,0,1,.81.57l4.27,16.24q.16.57-.33.57H39.55a.54.54,0,0,1-.41-.12,1,1,0,0,1-.16-.45l-.76-3H33l-.76,3a.8.8,0,0,1-.17.45A.54.54,0,0,1,31.63,103Zm3.92-14.11L33.6,96.65h4l-1.94-7.81Z"/><path class="cls-1" d="M47.69,103H45.44a.5.5,0,0,1-.57-.57V86.14a.5.5,0,0,1,.57-.57h2a.76.76,0,0,1,.76.38l5.46,10.24h.11v-10a.5.5,0,0,1,.56-.57h2.25a.5.5,0,0,1,.57.57v16.24a.5.5,0,0,1-.57.57h-2a.9.9,0,0,1-.86-.54L48.36,92.35h-.11v10A.5.5,0,0,1,47.69,103Z"/><path class="cls-1" d="M60.69,102.38V86.14a.5.5,0,0,1,.57-.57h6.68a4.48,4.48,0,0,1,3.28,1.15A4.35,4.35,0,0,1,72.4,90v8.57a4.35,4.35,0,0,1-1.18,3.26A4.48,4.48,0,0,1,67.94,103H61.26A.5.5,0,0,1,60.69,102.38Zm3.73-2.4h3A1.35,1.35,0,0,0,69,98.38V90.14a1.35,1.35,0,0,0-1.59-1.6h-3a.27.27,0,0,0-.3.3V99.68A.27.27,0,0,0,64.42,100Z"/><path class="cls-1" d="M0,145.3V133.43c0-.11.05-.17.15-.17H4.82a2.48,2.48,0,0,1,1.85.71,2.53,2.53,0,0,1,.7,1.88v7a2.53,2.53,0,0,1-.7,1.88,2.47,2.47,0,0,1-1.85.7H.15C.05,145.47,0,145.42,0,145.3Zm.74-.36H4.82a1.87,1.87,0,0,0,1.46-.55,2.11,2.11,0,0,0,.52-1.52v-7a2.09,2.09,0,0,0-.52-1.52,1.87,1.87,0,0,0-1.46-.55H.74c-.11,0-.17,0-.17.15v10.84C.57,144.89.63,144.94.74,144.94Z"/><path class="cls-1" d="M14.89,133.43V145.3c0,.12-.05.17-.15.17h-.27c-.1,0-.15-.05-.15-.17V133.43c0-.11,0-.17.15-.17h.27C14.84,133.26,14.89,133.32,14.89,133.43Z"/><path class="cls-1" d="M26.58,145.47H24.49a2.47,2.47,0,0,1-1.85-.7,2.53,2.53,0,0,1-.7-1.88v-7a2.53,2.53,0,0,1,.7-1.88,2.48,2.48,0,0,1,1.85-.71h2.09a2.48,2.48,0,0,1,1.85.71,2.56,2.56,0,0,1,.69,1.88v1c0,.11-.05.17-.15.17H28.7c-.1,0-.15-.06-.15-.17v-.93a2.13,2.13,0,0,0-.51-1.52,1.89,1.89,0,0,0-1.46-.55H24.49a1.87,1.87,0,0,0-1.46.55,2.09,2.09,0,0,0-.52,1.52v7a2.11,2.11,0,0,0,.52,1.52,1.87,1.87,0,0,0,1.46.55h2.09a1.89,1.89,0,0,0,1.46-.55,2.15,2.15,0,0,0,.51-1.52V140c0-.1-.06-.15-.17-.15H25.93c-.11,0-.17,0-.17-.15v-.23c0-.1.06-.15.17-.15h2.85c.23,0,.34.12.34.36v3.21a2.56,2.56,0,0,1-.69,1.88A2.47,2.47,0,0,1,26.58,145.47Z"/><path class="cls-1" d="M36.74,133.43V145.3c0,.12-.05.17-.15.17h-.27c-.1,0-.15-.05-.15-.17V133.43c0-.11,0-.17.15-.17h.27C36.69,133.26,36.74,133.32,36.74,133.43Z"/><path class="cls-1" d="M47.51,145.47h-.26c-.1,0-.15-.05-.15-.17V134q0-.15-.18-.15H44c-.11,0-.17-.05-.17-.15v-.23a.15.15,0,0,1,.17-.16h6.76a.15.15,0,0,1,.17.16v.23c0,.1-.06.15-.17.15H47.84q-.18,0-.18.15V145.3C47.66,145.42,47.61,145.47,47.51,145.47Z"/><path class="cls-1" d="M54.28,145.47H54c-.11,0-.15-.05-.11-.17l4-11.87a.2.2,0,0,1,.19-.17h.45c.09,0,.15.06.19.17l4,11.87c0,.12,0,.17-.11.17h-.29c-.09,0-.15-.05-.19-.17L61,142H55.65l-1.16,3.3C54.44,145.42,54.37,145.47,54.28,145.47Zm4-11.48-2.42,7.44h4.9L58.34,134Z"/><path class="cls-1" d="M72.21,145.47h-6c-.1,0-.15-.05-.15-.17V133.43c0-.11,0-.17.15-.17h.26a.15.15,0,0,1,.16.17v11.32c0,.1,0,.15.17.15h5.39c.11,0,.17,0,.17.16v.26C72.38,145.42,72.32,145.47,72.21,145.47Z"/><path class="cls-1" d="M8.59,128.4V112.15a.5.5,0,0,1,.57-.57h6.49a4.53,4.53,0,0,1,3.3,1.14A4.34,4.34,0,0,1,20.11,116v1.11A2.83,2.83,0,0,1,18,120a2.88,2.88,0,0,1,1.74.88,3,3,0,0,1,.64,2v1.63a4.31,4.31,0,0,1-1.16,3.24A4.46,4.46,0,0,1,15.92,129H9.16A.5.5,0,0,1,8.59,128.4Zm3.73-9.76h2.76a1.82,1.82,0,0,0,1.27-.37,1.54,1.54,0,0,0,.41-1.2v-1a1.61,1.61,0,0,0-.39-1.21,1.84,1.84,0,0,0-1.26-.36H12.32a.26.26,0,0,0-.29.3v3.59A.26.26,0,0,0,12.32,118.64Zm0,7.46h3a1.83,1.83,0,0,0,1.29-.37,1.57,1.57,0,0,0,.39-1.2V123a1.53,1.53,0,0,0-.41-1.19,2,2,0,0,0-1.32-.35h-3a.26.26,0,0,0-.29.3v4.08A.26.26,0,0,0,12.32,126.1Z"/><path class="cls-1" d="M38.28,128.4v-1.62a2.11,2.11,0,0,1,.35-1.33l7.16-10.57v-.11H39.33a.5.5,0,0,1-.57-.56v-2.06a.5.5,0,0,1,.57-.57h9.6q.54,0,.54.57v2.32a2.37,2.37,0,0,1-.41,1.41l-6.73,9.79v.11H49.2q.54,0,.54.51v2q0,.63-.54.63H38.85A.5.5,0,0,1,38.28,128.4Z"/><path class="cls-1" d="M52.36,128.4v-1.62a2.11,2.11,0,0,1,.35-1.33l7.17-10.57v-.11H53.42a.5.5,0,0,1-.57-.56v-2.06a.5.5,0,0,1,.57-.57H63q.54,0,.54.57v2.32a2.44,2.44,0,0,1-.41,1.41l-6.73,9.79v.11h6.86c.37,0,.55.17.55.51v2c0,.42-.18.63-.55.63H52.93A.5.5,0,0,1,52.36,128.4Z"/><path class="cls-1" d="M26.9,110.39v-5a.5.5,0,0,0-.57-.57H24a.5.5,0,0,0-.57.57v5Z"/><path class="cls-1" d="M35.36,110.39v-5q0-.54-.6-.54H32.49a.5.5,0,0,0-.56.57v5Z"/><path class="cls-1" d="M31.93,111.58V124.4a1.74,1.74,0,0,1-.37,1.23,1.71,1.71,0,0,1-1.23.36H28.46a1.69,1.69,0,0,1-1.2-.36,1.74,1.74,0,0,1-.36-1.23V111.58H23.46v13a4.36,4.36,0,0,0,1.17,3.27A4.49,4.49,0,0,0,27.92,129h3a4.52,4.52,0,0,0,3.28-1.15,4.35,4.35,0,0,0,1.18-3.26v-13Z"/><rect class="cls-1" x="0.02" y="105.55" width="20.5" height="4.11"/><rect class="cls-1" x="38.28" y="105.55" width="34.12" height="4.11"/></g></g></svg>