<svg xmlns="http://www.w3.org/2000/svg" viewBox="0 0 52.81 66.9"><defs><style>.cls-1{fill:#fff;}</style></defs><g id="Layer_2" data-name="Layer 2"><g id="Layer_1-2" data-name="Layer 1"><path class="cls-1" d="M29.45,49.93A4.77,4.77,0,0,0,33,48.38a5.77,5.77,0,0,0,1.49-4.2A5.69,5.69,0,0,0,33.06,40a5,5,0,0,0-7.19,0,5.78,5.78,0,0,0-1.47,4.18,5.77,5.77,0,0,0,1.47,4.17A4.77,4.77,0,0,0,29.45,49.93Z"/><path class="cls-1" d="M15.37,44.6a11.72,11.72,0,0,0,1.3,5.6,11.2,11.2,0,0,0,.7,1.12V37.88a12.3,12.3,0,0,0-.7,1.11A11.76,11.76,0,0,0,15.37,44.6Z"/><path class="cls-1" d="M20.91,6.84h0a3.54,3.54,0,0,0-3.54,3.54v5.29a26.34,26.34,0,0,1,7.07-1.5V10.38A3.54,3.54,0,0,0,20.91,6.84Z"/><path class="cls-1" d="M15.37,2.15a1.12,1.12,0,1,0-.78,0V16.88l.78-.38Z"/><path class="cls-1" d="M26.4,14.09c-.66,0-1.31,0-2,.08v19a9.93,9.93,0,0,0-5.43,2,10.06,10.06,0,0,0-1.64,1.55v1.2a9.42,9.42,0,0,1,2.9-2.65,9.89,9.89,0,0,1,4.17-1.29v2a7.06,7.06,0,0,1,1.94-2,10.26,10.26,0,0,1,4.4,1.25,8.74,8.74,0,0,1,3.49,3.7,12.36,12.36,0,0,1,1.24,5.73,12.34,12.34,0,0,1-1.24,5.72A8.76,8.76,0,0,1,30.78,54a9.83,9.83,0,0,1-3.39,1.13l-.09,0a7.54,7.54,0,0,1-2.86-2.58v2.72A9.76,9.76,0,0,1,20.27,54a9.27,9.27,0,0,1-2.9-2.64v1.26A10.34,10.34,0,0,0,19,54.07a9.59,9.59,0,0,0,3.74,1.69H17.37V52.58a9.88,9.88,0,0,1-2-3.64v6.82h-.78V16.88A26.41,26.41,0,1,0,26.4,14.09Zm14,36.36a10.11,10.11,0,0,1-3.66,4.18,9.49,9.49,0,0,1-5.16,1.46,9.69,9.69,0,0,1-2.93-.43,10.86,10.86,0,0,0,2.5-1,9.61,9.61,0,0,0,3.84-4,12.92,12.92,0,0,0,1.37-6.1A12.86,12.86,0,0,0,35,38.5a9.55,9.55,0,0,0-3.84-4,10.84,10.84,0,0,0-3.71-1.24,9,9,0,0,1,4.14-.93,9.56,9.56,0,0,1,5.16,1.44,10,10,0,0,1,3.66,4.14,13.72,13.72,0,0,1,1.35,6.24A13.88,13.88,0,0,1,40.38,50.45Z"/><path class="cls-1" d="M17.37,36.68v-21c-.68.25-1.34.53-2,.83V40.26A10.55,10.55,0,0,1,17.37,36.68Z"/></g></g></svg>