<svg xmlns="http://www.w3.org/2000/svg" viewBox="0 0 59.94 49.6"><defs><style>.cls-1{fill:#0339a6;}.cls-2{fill:#f2af5e;}</style></defs><g id="Layer_2" data-name="Layer 2"><g id="Layer_1-2" data-name="Layer 1"><path class="cls-1" d="M0,13.92V.47A.42.42,0,0,1,.49,0H5.86A3.73,3.73,0,0,1,8.59.94a3.6,3.6,0,0,1,1,2.69v.91A2.36,2.36,0,0,1,7.79,7a2.37,2.37,0,0,1,1.43.72,2.43,2.43,0,0,1,.54,1.69v1.35a3.54,3.54,0,0,1-1,2.68,3.68,3.68,0,0,1-2.7.94H.49A.41.41,0,0,1,0,13.92ZM3.11,5.84H5.39a1.53,1.53,0,0,0,1.05-.3,1.26,1.26,0,0,0,.34-1V3.67a1.36,1.36,0,0,0-.32-1,1.53,1.53,0,0,0-1-.3H3.11a.22.22,0,0,0-.25.25v3C2.86,5.76,2.94,5.84,3.11,5.84Zm0,6.18H5.62a1.54,1.54,0,0,0,1.06-.3,1.31,1.31,0,0,0,.32-1V9.42a1.24,1.24,0,0,0-.33-1,1.65,1.65,0,0,0-1.1-.29H3.11c-.17,0-.25.08-.25.24v3.38A.22.22,0,0,0,3.11,12Z"/><path class="cls-1" d="M14.82,14.39H12.91a.41.41,0,0,1-.47-.47V.47A.42.42,0,0,1,12.91,0h5.33A3.76,3.76,0,0,1,21,1a3.61,3.61,0,0,1,1,2.71V5.42a3.26,3.26,0,0,1-2,3.35v.09l2.4,5c.13.36,0,.54-.38.54H20.17a1.42,1.42,0,0,1-.59-.09.66.66,0,0,1-.29-.38L17.05,9.09h-1.5c-.17,0-.26.08-.26.24v4.59A.41.41,0,0,1,14.82,14.39Zm.71-7.59h2.2a1.57,1.57,0,0,0,1.05-.3,1.25,1.25,0,0,0,.33-1V3.78a1.31,1.31,0,0,0-.33-1,1.52,1.52,0,0,0-1.05-.32h-2.2c-.16,0-.24.08-.24.25V6.56A.21.21,0,0,0,15.53,6.8Z"/><path class="cls-1" d="M26.19,14.39H24c-.27,0-.36-.15-.27-.47L27.3.47A.66.66,0,0,1,28,0h3a.6.6,0,0,1,.67.47l3.54,13.45c.09.32,0,.47-.27.47H32.74a.42.42,0,0,1-.33-.1.77.77,0,0,1-.14-.37l-.62-2.46H27.28l-.62,2.46a.68.68,0,0,1-.15.37A.44.44,0,0,1,26.19,14.39ZM29.43,2.71,27.82,9.18h3.31L29.52,2.71Z"/><path class="cls-1" d="M39.48,14.39H37.62a.41.41,0,0,1-.47-.47V.47A.42.42,0,0,1,37.62,0H39.3a.63.63,0,0,1,.63.31L44.45,8.8h.09V.47A.42.42,0,0,1,45,0h1.86a.42.42,0,0,1,.47.47V13.92a.41.41,0,0,1-.47.47H45.23a.75.75,0,0,1-.71-.45L40,5.62H40v8.3A.41.41,0,0,1,39.48,14.39Z"/><path class="cls-1" d="M50.25,13.92V.47A.41.41,0,0,1,50.72,0h5.53A3.75,3.75,0,0,1,59,1a3.6,3.6,0,0,1,1,2.7v7.09a3.59,3.59,0,0,1-1,2.7,3.71,3.71,0,0,1-2.72,1H50.72A.41.41,0,0,1,50.25,13.92Zm3.09-2h2.44a1.45,1.45,0,0,0,1-.3,1.41,1.41,0,0,0,.3-1V3.78a1.45,1.45,0,0,0-.3-1,1.45,1.45,0,0,0-1-.3H53.34a.22.22,0,0,0-.25.25v9A.22.22,0,0,0,53.34,11.93Z"/><path class="cls-1" d="M0,49.46V39.63c0-.09,0-.14.13-.14H4a2.07,2.07,0,0,1,1.54.58,2.14,2.14,0,0,1,.57,1.56v5.83A2.14,2.14,0,0,1,5.53,49,2.07,2.07,0,0,1,4,49.6H.13C0,49.6,0,49.55,0,49.46Zm.61-.3H4A1.54,1.54,0,0,0,5.2,48.7a1.73,1.73,0,0,0,.43-1.25V41.64a1.73,1.73,0,0,0-.43-1.25A1.54,1.54,0,0,0,4,39.93H.61c-.09,0-.14,0-.14.13v9C.47,49.12.52,49.16.61,49.16Z"/><path class="cls-1" d="M12.33,39.63v9.83c0,.09,0,.14-.13.14H12c-.08,0-.12-.05-.12-.14V39.63c0-.09,0-.14.12-.14h.22C12.29,39.49,12.33,39.54,12.33,39.63Z"/><path class="cls-1" d="M22,49.6H20.27A2.05,2.05,0,0,1,18.74,49a2.14,2.14,0,0,1-.57-1.56V41.63a2.14,2.14,0,0,1,.57-1.56,2.05,2.05,0,0,1,1.53-.58H22a2.07,2.07,0,0,1,1.54.58,2.14,2.14,0,0,1,.57,1.56v.78c0,.1,0,.15-.13.15h-.22q-.12,0-.12-.15v-.77a1.73,1.73,0,0,0-.43-1.25A1.54,1.54,0,0,0,22,39.93H20.27a1.57,1.57,0,0,0-1.21.46,1.77,1.77,0,0,0-.42,1.25v5.81a1.77,1.77,0,0,0,.42,1.25,1.57,1.57,0,0,0,1.21.46H22a1.54,1.54,0,0,0,1.21-.46,1.73,1.73,0,0,0,.43-1.25V45.07c0-.08-.05-.12-.14-.12h-2c-.1,0-.14-.05-.14-.13v-.19c0-.08,0-.12.14-.12h2.36c.19,0,.28.1.28.29v2.66A2.14,2.14,0,0,1,23.54,49,2.07,2.07,0,0,1,22,49.6Z"/><path class="cls-1" d="M30.42,39.63v9.83c0,.09,0,.14-.13.14h-.22c-.08,0-.12-.05-.12-.14V39.63c0-.09,0-.14.12-.14h.22C30.38,39.49,30.42,39.54,30.42,39.63Z"/><path class="cls-1" d="M39.34,49.6h-.22c-.09,0-.13-.05-.13-.14v-9.4c0-.09,0-.13-.14-.13H36.43c-.09,0-.14,0-.14-.12v-.19c0-.09.05-.13.14-.13H42c.09,0,.14,0,.14.13v.19c0,.08-.05.12-.14.12H39.61c-.1,0-.15,0-.15.13v9.4C39.46,49.55,39.42,49.6,39.34,49.6Z"/><path class="cls-1" d="M44.94,49.6h-.22c-.09,0-.13-.05-.09-.14l3.3-9.83c0-.09.08-.14.15-.14h.38a.18.18,0,0,1,.16.14l3.3,9.83c0,.09,0,.14-.09.14h-.24a.18.18,0,0,1-.16-.14l-1-2.74h-4.4l-1,2.74A.2.2,0,0,1,44.94,49.6Zm3.3-9.51-2,6.16H50.3l-2-6.16Z"/><path class="cls-1" d="M59.79,49.6h-5c-.08,0-.12-.05-.12-.14V39.63c0-.09,0-.14.12-.14h.22c.09,0,.13,0,.13.14V49c0,.09,0,.13.14.13h4.47c.09,0,.14,0,.14.12v.22C59.93,49.56,59.88,49.6,59.79,49.6Z"/><path class="cls-1" d="M7.12,35.46V22a.41.41,0,0,1,.47-.47H13a3.73,3.73,0,0,1,2.73.94,3.6,3.6,0,0,1,1,2.69v.91a2.34,2.34,0,0,1-1.77,2.46,2.32,2.32,0,0,1,1.43.73A2.43,2.43,0,0,1,16.85,31v1.35a3.59,3.59,0,0,1-1,2.68,3.71,3.71,0,0,1-2.71.94H7.59A.41.41,0,0,1,7.12,35.46Zm3.08-8.08h2.29a1.53,1.53,0,0,0,1-.3,1.29,1.29,0,0,0,.33-1v-.87a1.32,1.32,0,0,0-.32-1,1.5,1.5,0,0,0-1-.3H10.2c-.16,0-.24.08-.24.25v3A.21.21,0,0,0,10.2,27.38Zm0,6.18h2.51a1.53,1.53,0,0,0,1.06-.3,1.31,1.31,0,0,0,.33-1V31a1.21,1.21,0,0,0-.34-1,1.62,1.62,0,0,0-1.09-.29H10.2a.21.21,0,0,0-.24.24v3.38C10,33.48,10,33.56,10.2,33.56Z"/><path class="cls-1" d="M31.69,35.46V34.12A1.76,1.76,0,0,1,32,33l5.94-8.75v-.09H32.57a.41.41,0,0,1-.47-.47V22a.41.41,0,0,1,.47-.47h7.94c.3,0,.45.16.45.47v1.92a2,2,0,0,1-.34,1.17l-5.57,8.1v.09h5.68c.3,0,.45.14.45.43v1.7q0,.51-.45.51H32.16A.42.42,0,0,1,31.69,35.46Z"/><path class="cls-1" d="M43.35,35.46V34.12a1.76,1.76,0,0,1,.29-1.1l5.94-8.75v-.09H44.23a.41.41,0,0,1-.47-.47V22a.41.41,0,0,1,.47-.47h7.94c.3,0,.45.16.45.47v1.92a2,2,0,0,1-.34,1.17l-5.57,8.1v.09H52.4c.3,0,.44.14.44.43v1.7c0,.34-.14.51-.44.51H43.82A.42.42,0,0,1,43.35,35.46Z"/><path class="cls-2" d="M22.27,20.55V16.41a.42.42,0,0,0-.47-.47H19.9a.41.41,0,0,0-.47.47v4.14Z"/><path class="cls-2" d="M29.28,20.55V16.39c0-.3-.17-.45-.5-.45H26.9a.42.42,0,0,0-.47.47v4.14Z"/><path class="cls-1" d="M26.43,21.54V32.15a1.11,1.11,0,0,1-1.32,1.32H23.57a1.37,1.37,0,0,1-1-.3,1.41,1.41,0,0,1-.3-1V21.54H19.43V32.28a3.63,3.63,0,0,0,1,2.71,3.73,3.73,0,0,0,2.73.94h2.46a3.74,3.74,0,0,0,2.72-1,3.59,3.59,0,0,0,1-2.7V21.54Z"/><rect class="cls-1" x="0.02" y="16.55" width="16.98" height="3.4"/><rect class="cls-1" x="31.69" y="16.55" width="28.25" height="3.4"/></g></g></svg>