<svg xmlns="http://www.w3.org/2000/svg" viewBox="0 0 72.4 59.91"><defs><style>.cls-1{fill:#fff;}</style></defs><g id="Layer_2" data-name="Layer 2"><g id="Layer_1-2" data-name="Layer 1"><path class="cls-1" d="M0,16.82V.57A.5.5,0,0,1,.59,0H7.08a4.53,4.53,0,0,1,3.3,1.14,4.32,4.32,0,0,1,1.16,3.24V5.49a2.83,2.83,0,0,1-2.14,3,2.83,2.83,0,0,1,1.74.88,3,3,0,0,1,.64,2V13a4.32,4.32,0,0,1-1.16,3.25,4.49,4.49,0,0,1-3.27,1.13H.59A.5.5,0,0,1,0,16.82ZM3.76,7.06H6.51a1.87,1.87,0,0,0,1.27-.37,1.54,1.54,0,0,0,.41-1.2V4.43a1.57,1.57,0,0,0-.39-1.2,1.84,1.84,0,0,0-1.26-.36H3.76c-.2,0-.3.09-.3.29v3.6A.27.27,0,0,0,3.76,7.06Zm0,7.46h3a1.83,1.83,0,0,0,1.29-.37A1.57,1.57,0,0,0,8.46,13V11.38a1.51,1.51,0,0,0-.41-1.19,2,2,0,0,0-1.32-.35h-3a.27.27,0,0,0-.3.3v4.08A.27.27,0,0,0,3.76,14.52Z"/><path class="cls-1" d="M17.89,17.38H15.6a.5.5,0,0,1-.57-.56V.57A.5.5,0,0,1,15.6,0H22a4.53,4.53,0,0,1,3.3,1.16,4.39,4.39,0,0,1,1.19,3.27V6.54a4,4,0,0,1-2.41,4.06v.11l2.9,6c.16.44,0,.65-.46.65H24.36a1.78,1.78,0,0,1-.71-.1.87.87,0,0,1-.35-.46L20.6,11H18.79c-.22,0-.33.1-.33.29v5.55A.5.5,0,0,1,17.89,17.38Zm.87-9.16h2.65a1.82,1.82,0,0,0,1.27-.37,1.5,1.5,0,0,0,.41-1.17V4.57a1.6,1.6,0,0,0-.41-1.22A1.82,1.82,0,0,0,21.41,3H18.76a.27.27,0,0,0-.3.3V7.92A.27.27,0,0,0,18.76,8.22Z"/><path class="cls-1" d="M31.63,17.38H29c-.32,0-.43-.19-.32-.56L33,.57A.77.77,0,0,1,33.79,0h3.6a.73.73,0,0,1,.81.57l4.27,16.25c.11.37,0,.56-.33.56H39.55a.54.54,0,0,1-.41-.12,1,1,0,0,1-.16-.44l-.76-3H33l-.76,3a.79.79,0,0,1-.17.44A.54.54,0,0,1,31.63,17.38ZM35.55,3.27,33.6,11.08h4L35.66,3.27Z"/><path class="cls-1" d="M47.69,17.38H45.44a.5.5,0,0,1-.57-.56V.57A.5.5,0,0,1,45.44,0h2a.77.77,0,0,1,.76.38l5.46,10.24h.11V.57A.5.5,0,0,1,54.36,0h2.25a.5.5,0,0,1,.57.57V16.82a.5.5,0,0,1-.57.56h-2a.9.9,0,0,1-.86-.54l-5.41-10h-.11v10A.5.5,0,0,1,47.69,17.38Z"/><path class="cls-1" d="M60.69,16.82V.57A.5.5,0,0,1,61.26,0h6.68a4.48,4.48,0,0,1,3.28,1.15A4.37,4.37,0,0,1,72.4,4.41V13a4.35,4.35,0,0,1-1.18,3.25,4.48,4.48,0,0,1-3.28,1.15H61.26A.5.5,0,0,1,60.69,16.82Zm3.73-2.41h3A1.69,1.69,0,0,0,68.6,14,1.71,1.71,0,0,0,69,12.81V4.57a1.71,1.71,0,0,0-.36-1.23A1.74,1.74,0,0,0,67.37,3h-3a.27.27,0,0,0-.3.3V14.11A.27.27,0,0,0,64.42,14.41Z"/><path class="cls-1" d="M0,59.73V47.87c0-.12.05-.17.15-.17H4.82a2.47,2.47,0,0,1,1.85.7,2.53,2.53,0,0,1,.7,1.88v7a2.53,2.53,0,0,1-.7,1.88,2.48,2.48,0,0,1-1.85.71H.15Q0,59.91,0,59.73Zm.74-.36H4.82a1.87,1.87,0,0,0,1.46-.55,2.08,2.08,0,0,0,.52-1.51v-7a2.11,2.11,0,0,0-.52-1.52,1.87,1.87,0,0,0-1.46-.55H.74c-.11,0-.17.05-.17.15V59.22C.57,59.32.63,59.37.74,59.37Z"/><path class="cls-1" d="M14.89,47.87V59.73q0,.18-.15.18h-.27q-.15,0-.15-.18V47.87c0-.12,0-.17.15-.17h.27C14.84,47.7,14.89,47.75,14.89,47.87Z"/><path class="cls-1" d="M26.58,59.91H24.49a2.48,2.48,0,0,1-1.85-.71,2.53,2.53,0,0,1-.7-1.88v-7a2.53,2.53,0,0,1,.7-1.88,2.47,2.47,0,0,1,1.85-.7h2.09a2.47,2.47,0,0,1,1.85.7,2.56,2.56,0,0,1,.69,1.88v.95c0,.11-.05.17-.15.17H28.7c-.1,0-.15-.06-.15-.17V50.3A2.15,2.15,0,0,0,28,48.78a1.89,1.89,0,0,0-1.46-.55H24.49a1.87,1.87,0,0,0-1.46.55,2.11,2.11,0,0,0-.52,1.52v7A2.08,2.08,0,0,0,23,58.82a1.87,1.87,0,0,0,1.46.55h2.09A1.89,1.89,0,0,0,28,58.82a2.12,2.12,0,0,0,.51-1.51V54.44c0-.1-.06-.15-.17-.15H25.93a.15.15,0,0,1-.17-.16v-.22a.15.15,0,0,1,.17-.16h2.85c.23,0,.34.12.34.36v3.21a2.56,2.56,0,0,1-.69,1.88A2.48,2.48,0,0,1,26.58,59.91Z"/><path class="cls-1" d="M36.74,47.87V59.73q0,.18-.15.18h-.27q-.15,0-.15-.18V47.87c0-.12,0-.17.15-.17h.27C36.69,47.7,36.74,47.75,36.74,47.87Z"/><path class="cls-1" d="M47.51,59.91h-.26q-.15,0-.15-.18V48.38q0-.15-.18-.15H44c-.11,0-.17,0-.17-.15v-.23c0-.1.06-.15.17-.15h6.76c.11,0,.17,0,.17.15v.23c0,.1-.06.15-.17.15H47.84q-.18,0-.18.15V59.73Q47.66,59.91,47.51,59.91Z"/><path class="cls-1" d="M54.28,59.91H54c-.11,0-.15-.06-.11-.18l4-11.86a.19.19,0,0,1,.19-.17h.45c.09,0,.15,0,.19.17l4,11.86c0,.12,0,.18-.11.18h-.29c-.09,0-.15-.06-.19-.18L61,56.43H55.65l-1.16,3.3Q54.41,59.91,54.28,59.91Zm4-11.49-2.42,7.44h4.9l-2.41-7.44Z"/><path class="cls-1" d="M72.21,59.91h-6q-.15,0-.15-.18V47.87c0-.12,0-.17.15-.17h.26c.1,0,.16,0,.16.17V59.18c0,.11,0,.16.17.16h5.39c.11,0,.17,0,.17.15v.26A.15.15,0,0,1,72.21,59.91Z"/><path class="cls-1" d="M8.59,42.83V26.58A.5.5,0,0,1,9.16,26h6.49A4.53,4.53,0,0,1,19,27.15a4.35,4.35,0,0,1,1.16,3.24V31.5a2.84,2.84,0,0,1-2.14,3,2.78,2.78,0,0,1,1.74.88,2.92,2.92,0,0,1,.64,2V39a4.3,4.3,0,0,1-1.16,3.24,4.46,4.46,0,0,1-3.27,1.14H9.16A.5.5,0,0,1,8.59,42.83Zm3.73-9.76h2.76a1.87,1.87,0,0,0,1.27-.36,1.58,1.58,0,0,0,.41-1.21V30.45a1.61,1.61,0,0,0-.39-1.21,1.84,1.84,0,0,0-1.26-.36H12.32a.26.26,0,0,0-.29.3v3.59A.26.26,0,0,0,12.32,33.07Zm0,7.46h3a1.88,1.88,0,0,0,1.29-.36A1.61,1.61,0,0,0,17,39V37.4a1.5,1.5,0,0,0-.41-1.19,2,2,0,0,0-1.32-.35h-3a.26.26,0,0,0-.29.29v4.09A.26.26,0,0,0,12.32,40.53Z"/><path class="cls-1" d="M38.28,42.83V41.21a2.11,2.11,0,0,1,.35-1.33l7.16-10.57v-.1H39.33a.5.5,0,0,1-.57-.57V26.58a.5.5,0,0,1,.57-.56h9.6c.36,0,.54.18.54.56v2.33a2.34,2.34,0,0,1-.41,1.4L42.33,40.1v.11H49.2q.54,0,.54.51v2.06c0,.41-.18.62-.54.62H38.85A.5.5,0,0,1,38.28,42.83Z"/><path class="cls-1" d="M52.36,42.83V41.21a2.11,2.11,0,0,1,.35-1.33l7.17-10.57v-.1H53.42a.5.5,0,0,1-.57-.57V26.58a.5.5,0,0,1,.57-.56H63c.36,0,.54.18.54.56v2.33a2.41,2.41,0,0,1-.41,1.4L56.42,40.1v.11h6.86c.37,0,.55.17.55.51v2.06c0,.41-.18.62-.55.62H52.93A.5.5,0,0,1,52.36,42.83Z"/><path class="cls-1" d="M26.9,24.82v-5a.5.5,0,0,0-.57-.56H24a.5.5,0,0,0-.57.56v5Z"/><path class="cls-1" d="M35.36,24.82v-5q0-.54-.6-.54H32.49a.49.49,0,0,0-.56.56v5Z"/><path class="cls-1" d="M31.93,26V38.83a1.35,1.35,0,0,1-1.6,1.59H28.46a1.69,1.69,0,0,1-1.2-.36,1.71,1.71,0,0,1-.36-1.23V26H23.46V39a4.33,4.33,0,0,0,1.17,3.27,4.49,4.49,0,0,0,3.29,1.14h3a4.48,4.48,0,0,0,3.28-1.15A4.33,4.33,0,0,0,35.36,39V26Z"/><rect class="cls-1" x="0.02" y="19.98" width="20.5" height="4.11"/><rect class="cls-1" x="38.28" y="19.98" width="34.12" height="4.11"/></g></g></svg>