<svg xmlns="http://www.w3.org/2000/svg" viewBox="0 0 143.23 86.71"><defs><style>.cls-1{fill:#0339a6;}.cls-2{fill:#f2af5e;}.cls-3{fill:#fff;}</style></defs><g id="Layer_2" data-name="Layer 2"><g id="Layer_1-2" data-name="Layer 1"><rect class="cls-1" width="143.23" height="86.71"/><circle class="cls-2" cx="31.77" cy="49.19" r="21.86"/><path class="cls-3" d="M34.29,57a4,4,0,0,0,3-1.28,4.83,4.83,0,0,0,1.23-3.48,4.74,4.74,0,0,0-1.22-3.44,4,4,0,0,0-3-1.25,4,4,0,0,0-3,1.27,4.75,4.75,0,0,0-1.22,3.46,4.76,4.76,0,0,0,1.22,3.46A4,4,0,0,0,34.29,57Z"/><path class="cls-3" d="M22.63,52.59a9.59,9.59,0,0,0,1.08,4.63,8.6,8.6,0,0,0,.58.93V47a8.6,8.6,0,0,0-.58.93A9.61,9.61,0,0,0,22.63,52.59Z"/><path class="cls-3" d="M27.22,21.33h0a2.93,2.93,0,0,0-2.93,2.92v4.39a21.86,21.86,0,0,1,5.85-1.25V24.25A2.92,2.92,0,0,0,27.22,21.33Z"/><path class="cls-3" d="M22.63,17.44a.92.92,0,1,0-1.25-.86.91.91,0,0,0,.6.86v12.2l.65-.31Z"/><path class="cls-3" d="M31.77,27.33c-.55,0-1.09,0-1.63.06V43.13A8.21,8.21,0,0,0,24.29,46v1a7.62,7.62,0,0,1,2.4-2.19,8.11,8.11,0,0,1,3.45-1.07v1.67a5.94,5.94,0,0,1,1.6-1.68,8.4,8.4,0,0,1,3.65,1,7.25,7.25,0,0,1,2.89,3.06,10.24,10.24,0,0,1,1,4.75,10.23,10.23,0,0,1-1,4.74,7.25,7.25,0,0,1-2.89,3.06,7.84,7.84,0,0,1-2.81.94l-.07,0a6.23,6.23,0,0,1-2.37-2.14v2.25a8.11,8.11,0,0,1-3.45-1.07,7.62,7.62,0,0,1-2.4-2.19V59.2a9.7,9.7,0,0,0,1.32,1.23,8.18,8.18,0,0,0,3.1,1.4H24.29V59.2a8.25,8.25,0,0,1-1.66-3v5.65H22V29.64a21.87,21.87,0,1,0,9.79-2.31Zm11.57,30.1a8.35,8.35,0,0,1-3,3.46A7.82,7.82,0,0,1,36,62.1a8.08,8.08,0,0,1-2.42-.35,8.87,8.87,0,0,0,2.07-.83,7.86,7.86,0,0,0,3.18-3.28,10.6,10.6,0,0,0,1.13-5,10.57,10.57,0,0,0-1.13-5.05,7.83,7.83,0,0,0-3.18-3.29,9.05,9.05,0,0,0-3.07-1A7.42,7.42,0,0,1,36,42.45a7.9,7.9,0,0,1,4.28,1.2,8.29,8.29,0,0,1,3,3.42,12.54,12.54,0,0,1,0,10.36Z"/><path class="cls-3" d="M24.29,46V28.64c-.56.2-1.11.44-1.66.69V49A8.69,8.69,0,0,1,24.29,46Z"/><path class="cls-3" d="M73.4,32.48V19a.41.41,0,0,1,.47-.47h5.37A3.73,3.73,0,0,1,82,19.5a3.57,3.57,0,0,1,1,2.68v.92a2.34,2.34,0,0,1-1.76,2.46,2.33,2.33,0,0,1,1.43.73A2.42,2.42,0,0,1,83.14,28v1.34a3.6,3.6,0,0,1-1,2.69,3.72,3.72,0,0,1-2.7.94h-5.6A.41.41,0,0,1,73.4,32.48Zm3.09-8.08h2.28a1.48,1.48,0,0,0,1-.31,1.25,1.25,0,0,0,.34-1v-.87a1.29,1.29,0,0,0-.33-1,1.49,1.49,0,0,0-1-.3h-2.3c-.17,0-.25.08-.25.24v3A.22.22,0,0,0,76.49,24.4Zm0,6.18H79a1.55,1.55,0,0,0,1.07-.31,1.32,1.32,0,0,0,.32-1V28a1.28,1.28,0,0,0-.33-1A1.7,1.7,0,0,0,79,26.7H76.49a.22.22,0,0,0-.25.25v3.38A.22.22,0,0,0,76.49,30.58Z"/><path class="cls-3" d="M88.19,33h-1.9a.42.42,0,0,1-.47-.47V19a.41.41,0,0,1,.47-.47h5.33a3.76,3.76,0,0,1,2.73,1,3.59,3.59,0,0,1,1,2.71V24a3.26,3.26,0,0,1-2,3.36v.09l2.4,5c.13.36,0,.54-.38.54H93.54a1.4,1.4,0,0,1-.58-.09.7.7,0,0,1-.29-.38l-2.24-4.84h-1.5c-.18,0-.27.09-.27.25v4.59A.41.41,0,0,1,88.19,33Zm.72-7.59H91.1a1.58,1.58,0,0,0,1.06-.3,1.27,1.27,0,0,0,.33-1V22.34a1.35,1.35,0,0,0-.33-1A1.53,1.53,0,0,0,91.1,21H88.91a.22.22,0,0,0-.25.24v3.85A.22.22,0,0,0,88.91,25.36Z"/><path class="cls-3" d="M99.56,33H97.42c-.27,0-.36-.16-.27-.47L100.68,19a.64.64,0,0,1,.67-.47h3A.59.59,0,0,1,105,19l3.54,13.45c.09.31,0,.47-.27.47h-2.15a.46.46,0,0,1-.33-.1.77.77,0,0,1-.14-.37L105,30h-4.37L100,32.48a.68.68,0,0,1-.14.37A.5.5,0,0,1,99.56,33Zm3.25-11.69-1.61,6.47h3.31l-1.61-6.47Z"/><path class="cls-3" d="M112.86,33H111a.42.42,0,0,1-.47-.47V19a.41.41,0,0,1,.47-.47h1.68a.64.64,0,0,1,.63.31l4.52,8.48h.09V19a.41.41,0,0,1,.47-.47h1.86a.41.41,0,0,1,.47.47V32.48a.42.42,0,0,1-.47.47h-1.64a.74.74,0,0,1-.71-.45l-4.48-8.33h-.09v8.31A.42.42,0,0,1,112.86,33Z"/><path class="cls-3" d="M123.63,32.48V19a.41.41,0,0,1,.47-.47h5.53a3.71,3.71,0,0,1,2.72,1,3.62,3.62,0,0,1,1,2.69v7.1a3.66,3.66,0,0,1-1,2.7,3.75,3.75,0,0,1-2.72,1H124.1A.41.41,0,0,1,123.63,32.48Zm3.09-2h2.44a1.4,1.4,0,0,0,1-.31,1.36,1.36,0,0,0,.31-1V22.34a1.37,1.37,0,0,0-.31-1,1.4,1.4,0,0,0-1-.3h-2.44c-.17,0-.25.08-.25.24v9A.22.22,0,0,0,126.72,30.49Z"/><path class="cls-3" d="M73.38,68V58.19c0-.1,0-.14.12-.14h3.87a2,2,0,0,1,1.53.58,2.08,2.08,0,0,1,.58,1.55V66a2.08,2.08,0,0,1-.58,1.55,2,2,0,0,1-1.53.58H73.5C73.42,68.15,73.38,68.11,73.38,68Zm.61-.3h3.38a1.57,1.57,0,0,0,1.21-.45A1.77,1.77,0,0,0,79,66V60.2a1.75,1.75,0,0,0-.43-1.26,1.57,1.57,0,0,0-1.21-.45H74c-.09,0-.14,0-.14.12v9C73.85,67.67,73.9,67.71,74,67.71Z"/><path class="cls-3" d="M85.71,58.19V68c0,.1,0,.14-.13.14h-.22c-.08,0-.12,0-.12-.14V58.19c0-.1,0-.14.12-.14h.22C85.67,58.05,85.71,58.09,85.71,58.19Z"/><path class="cls-3" d="M95.38,68.15H93.65a2,2,0,0,1-1.53-.58A2.12,2.12,0,0,1,91.55,66V60.18a2.12,2.12,0,0,1,.57-1.55,2,2,0,0,1,1.53-.58h1.73a2.07,2.07,0,0,1,1.54.58,2.12,2.12,0,0,1,.57,1.55V61c0,.09,0,.14-.13.14h-.22c-.08,0-.12,0-.12-.14V60.2a1.75,1.75,0,0,0-.43-1.26,1.57,1.57,0,0,0-1.21-.45H93.65a1.6,1.6,0,0,0-1.21.45A1.79,1.79,0,0,0,92,60.2V66a1.81,1.81,0,0,0,.42,1.26,1.6,1.6,0,0,0,1.21.45h1.73a1.57,1.57,0,0,0,1.21-.45A1.77,1.77,0,0,0,97,66V63.63c0-.09,0-.13-.14-.13h-2c-.1,0-.14,0-.14-.13v-.18c0-.09,0-.13.14-.13h2.36c.18,0,.28.1.28.3V66a2.12,2.12,0,0,1-.57,1.55A2.07,2.07,0,0,1,95.38,68.15Z"/><path class="cls-3" d="M103.8,58.19V68c0,.1,0,.14-.13.14h-.22c-.08,0-.12,0-.12-.14V58.19c0-.1,0-.14.12-.14h.22C103.76,58.05,103.8,58.09,103.8,58.19Z"/><path class="cls-3" d="M112.72,68.15h-.22c-.09,0-.13,0-.13-.14v-9.4c0-.08-.05-.12-.14-.12h-2.42c-.1,0-.14-.05-.14-.13v-.19c0-.08,0-.12.14-.12h5.6c.09,0,.14,0,.14.12v.19a.12.12,0,0,1-.14.13H113c-.09,0-.14,0-.14.12V68C112.84,68.11,112.8,68.15,112.72,68.15Z"/><path class="cls-3" d="M118.32,68.15h-.22c-.1,0-.13,0-.1-.14l3.31-9.82c0-.1.08-.14.15-.14h.38a.17.17,0,0,1,.16.14L125.3,68c0,.1,0,.14-.1.14H125c-.08,0-.13,0-.16-.14l-1-2.73h-4.4l-1,2.73C118.45,68.11,118.39,68.15,118.32,68.15Zm3.3-9.51-2,6.17h4.06l-2-6.17Z"/><path class="cls-3" d="M133.16,68.15h-4.95c-.08,0-.12,0-.12-.14V58.19c0-.1,0-.14.12-.14h.22c.09,0,.13,0,.13.14v9.37c0,.08.05.12.14.12h4.46c.1,0,.15,0,.15.13V68Q133.31,68.15,133.16,68.15Z"/><path class="cls-3" d="M80.49,54V40.56a.42.42,0,0,1,.47-.47h5.38a3.78,3.78,0,0,1,2.73.94,3.61,3.61,0,0,1,1,2.69v.92a2.34,2.34,0,0,1-1.77,2.46,2.27,2.27,0,0,1,1.43.73,2.42,2.42,0,0,1,.54,1.69v1.34a3.6,3.6,0,0,1-1,2.69,3.75,3.75,0,0,1-2.71.94H81A.42.42,0,0,1,80.49,54Zm3.09-8.08h2.29a1.51,1.51,0,0,0,1-.31,1.28,1.28,0,0,0,.33-1v-.87a1.29,1.29,0,0,0-.32-1,1.5,1.5,0,0,0-1-.3H83.58a.21.21,0,0,0-.24.24v3A.22.22,0,0,0,83.58,45.94Zm0,6.17h2.51a1.53,1.53,0,0,0,1.06-.3,1.28,1.28,0,0,0,.33-1v-1.3a1.24,1.24,0,0,0-.34-1,1.67,1.67,0,0,0-1.09-.29H83.58c-.16,0-.24.08-.24.25v3.38A.21.21,0,0,0,83.58,52.11Z"/><path class="cls-3" d="M105.07,54V52.67a1.73,1.73,0,0,1,.29-1.09l5.93-8.75v-.09h-5.35a.42.42,0,0,1-.47-.47V40.56a.42.42,0,0,1,.47-.47h8c.3,0,.45.16.45.47v1.93a1.94,1.94,0,0,1-.34,1.16l-5.57,8.11v.09h5.68q.45,0,.45.42V54c0,.35-.15.52-.45.52h-8.57A.42.42,0,0,1,105.07,54Z"/><path class="cls-3" d="M116.73,54V52.67a1.73,1.73,0,0,1,.29-1.09L123,42.83v-.09h-5.35a.41.41,0,0,1-.47-.47V40.56a.41.41,0,0,1,.47-.47h7.94c.3,0,.45.16.45.47v1.93a1.94,1.94,0,0,1-.34,1.16l-5.57,8.11v.09h5.69c.29,0,.44.14.44.42V54c0,.35-.15.52-.44.52H117.2A.42.42,0,0,1,116.73,54Z"/><path class="cls-2" d="M95.65,39.1V35a.42.42,0,0,0-.47-.47h-1.9a.41.41,0,0,0-.47.47V39.1Z"/><path class="cls-2" d="M102.65,39.1V35c0-.3-.16-.45-.49-.45h-1.88a.42.42,0,0,0-.47.47V39.1Z"/><path class="cls-3" d="M99.81,40.09V50.7A1.12,1.12,0,0,1,98.49,52H97a1.37,1.37,0,0,1-1-.31,1.41,1.41,0,0,1-.3-1V40.09H92.81V50.84a3.63,3.63,0,0,0,1,2.71,3.77,3.77,0,0,0,2.73.94H99a3.75,3.75,0,0,0,2.72-1,3.62,3.62,0,0,0,1-2.7V40.09Z"/><rect class="cls-3" x="73.4" y="35.1" width="16.98" height="3.4"/><rect class="cls-3" x="105.07" y="35.1" width="28.25" height="3.4"/></g></g></svg>