<svg xmlns="http://www.w3.org/2000/svg" viewBox="0 0 149.06 66.9"><defs><style>.cls-1{fill:#fff;}</style></defs><g id="Layer_2" data-name="Layer 2"><g id="Layer_1-2" data-name="Layer 1"><path class="cls-1" d="M29.45,49.93A4.77,4.77,0,0,0,33,48.38a5.77,5.77,0,0,0,1.49-4.2A5.69,5.69,0,0,0,33.06,40a5,5,0,0,0-7.19,0,5.78,5.78,0,0,0-1.47,4.18,5.77,5.77,0,0,0,1.47,4.17A4.77,4.77,0,0,0,29.45,49.93Z"/><path class="cls-1" d="M15.37,44.6a11.72,11.72,0,0,0,1.3,5.6,11.2,11.2,0,0,0,.7,1.12V37.88a12.3,12.3,0,0,0-.7,1.11A11.76,11.76,0,0,0,15.37,44.6Z"/><path class="cls-1" d="M20.91,6.84h0a3.54,3.54,0,0,0-3.54,3.54v5.29a26.34,26.34,0,0,1,7.07-1.5V10.38A3.54,3.54,0,0,0,20.91,6.84Z"/><path class="cls-1" d="M15.37,2.15a1.12,1.12,0,1,0-.78,0V16.88l.78-.38Z"/><path class="cls-1" d="M26.4,14.09c-.66,0-1.31,0-2,.08v19a9.93,9.93,0,0,0-5.43,2,10.06,10.06,0,0,0-1.64,1.55v1.2a9.42,9.42,0,0,1,2.9-2.65,9.89,9.89,0,0,1,4.17-1.29v2a7.06,7.06,0,0,1,1.94-2,10.26,10.26,0,0,1,4.4,1.25,8.74,8.74,0,0,1,3.49,3.7,12.36,12.36,0,0,1,1.24,5.73,12.34,12.34,0,0,1-1.24,5.72A8.76,8.76,0,0,1,30.78,54a9.83,9.83,0,0,1-3.39,1.13l-.09,0a7.54,7.54,0,0,1-2.86-2.58v2.72A9.76,9.76,0,0,1,20.27,54a9.27,9.27,0,0,1-2.9-2.64v1.26A10.34,10.34,0,0,0,19,54.07a9.59,9.59,0,0,0,3.74,1.69H17.37V52.58a9.88,9.88,0,0,1-2-3.64v6.82h-.78V16.88A26.41,26.41,0,1,0,26.4,14.09Zm14,36.36a10.11,10.11,0,0,1-3.66,4.18,9.49,9.49,0,0,1-5.16,1.46,9.69,9.69,0,0,1-2.93-.43,10.86,10.86,0,0,0,2.5-1,9.61,9.61,0,0,0,3.84-4,12.92,12.92,0,0,0,1.37-6.1A12.86,12.86,0,0,0,35,38.5a9.55,9.55,0,0,0-3.84-4,10.84,10.84,0,0,0-3.71-1.24,9,9,0,0,1,4.14-.93,9.56,9.56,0,0,1,5.16,1.44,10,10,0,0,1,3.66,4.14,13.72,13.72,0,0,1,1.35,6.24A13.88,13.88,0,0,1,40.38,50.45Z"/><path class="cls-1" d="M17.37,36.68v-21c-.68.25-1.34.53-2,.83V40.26A10.55,10.55,0,0,1,17.37,36.68Z"/><path class="cls-1" d="M76.69,20.31V4.06a.49.49,0,0,1,.56-.56h6.49A4.51,4.51,0,0,1,87,4.63,4.36,4.36,0,0,1,88.2,7.88V9a2.84,2.84,0,0,1-2.13,3,2.83,2.83,0,0,1,1.73.88,2.92,2.92,0,0,1,.65,2V16.5a4.29,4.29,0,0,1-1.17,3.24A4.46,4.46,0,0,1,84,20.88H77.25A.5.5,0,0,1,76.69,20.31Zm3.73-9.76h2.75a1.92,1.92,0,0,0,1.28-.36A1.58,1.58,0,0,0,84.85,9V7.93a1.57,1.57,0,0,0-.39-1.2,1.77,1.77,0,0,0-1.26-.37H80.42a.27.27,0,0,0-.3.3v3.59A.27.27,0,0,0,80.42,10.55Zm0,7.46h3a1.88,1.88,0,0,0,1.29-.36,1.6,1.6,0,0,0,.39-1.2V14.88a1.5,1.5,0,0,0-.4-1.19,2,2,0,0,0-1.33-.35h-3a.26.26,0,0,0-.3.29v4.09A.26.26,0,0,0,80.42,18Z"/><path class="cls-1" d="M94.56,20.88h-2.3a.5.5,0,0,1-.57-.57V4.06a.5.5,0,0,1,.57-.56h6.43A4.49,4.49,0,0,1,102,4.66a4.36,4.36,0,0,1,1.19,3.27V10q0,3.06-2.41,4.05v.11l2.9,6c.16.43,0,.65-.46.65H101a1.74,1.74,0,0,1-.71-.11.79.79,0,0,1-.35-.46l-2.7-5.84H95.45q-.33,0-.33.3v5.54A.5.5,0,0,1,94.56,20.88Zm.86-9.17h2.65a1.87,1.87,0,0,0,1.27-.36,1.52,1.52,0,0,0,.41-1.18V8.06a1.59,1.59,0,0,0-.41-1.21,1.82,1.82,0,0,0-1.27-.38H95.42a.27.27,0,0,0-.3.3v4.65C95.12,11.62,95.22,11.71,95.42,11.71Z"/><path class="cls-1" d="M108.29,20.88h-2.6c-.32,0-.43-.19-.32-.57l4.27-16.25a.77.77,0,0,1,.81-.56h3.6a.72.72,0,0,1,.81.56l4.27,16.25c.11.38,0,.57-.32.57h-2.6a.56.56,0,0,1-.41-.12,1,1,0,0,1-.16-.45l-.75-3h-5.28l-.75,3a.87.87,0,0,1-.18.45A.54.54,0,0,1,108.29,20.88Zm3.92-14.11-1.95,7.81h4l-1.94-7.81Z"/><path class="cls-1" d="M124.35,20.88H122.1a.5.5,0,0,1-.56-.57V4.06a.49.49,0,0,1,.56-.56h2a.77.77,0,0,1,.76.37l5.46,10.25h.11V4.06A.5.5,0,0,1,131,3.5h2.24a.5.5,0,0,1,.57.56V20.31a.5.5,0,0,1-.57.57h-2a.91.91,0,0,1-.87-.54L125,10.28h-.11v10A.5.5,0,0,1,124.35,20.88Z"/><path class="cls-1" d="M137.35,20.31V4.06a.5.5,0,0,1,.57-.56h6.68a4.51,4.51,0,0,1,3.28,1.14,4.35,4.35,0,0,1,1.18,3.26v8.57a4.33,4.33,0,0,1-1.18,3.26,4.48,4.48,0,0,1-3.28,1.15h-6.68A.5.5,0,0,1,137.35,20.31Zm3.73-2.4H144a1.7,1.7,0,0,0,1.23-.37,1.71,1.71,0,0,0,.36-1.23V8.06a1.74,1.74,0,0,0-.36-1.23A1.71,1.71,0,0,0,144,6.47h-2.95c-.2,0-.29.1-.29.3V17.61C140.79,17.81,140.88,17.91,141.08,17.91Z"/><path class="cls-1" d="M76.66,63.23V51.36c0-.11,0-.17.15-.17h4.67a2.54,2.54,0,0,1,1.86.7A2.59,2.59,0,0,1,84,53.78v7a2.58,2.58,0,0,1-.69,1.88,2.5,2.5,0,0,1-1.86.7H76.81C76.71,63.4,76.66,63.34,76.66,63.23Zm.74-.36h4.08A1.91,1.91,0,0,0,83,62.32a2.15,2.15,0,0,0,.51-1.52v-7A2.17,2.17,0,0,0,83,52.27a2,2,0,0,0-1.47-.55H77.4a.15.15,0,0,0-.17.16V62.72C77.23,62.82,77.29,62.87,77.4,62.87Z"/><path class="cls-1" d="M91.55,51.36V63.23c0,.11,0,.17-.15.17h-.26c-.11,0-.16-.06-.16-.17V51.36c0-.11,0-.17.16-.17h.26C91.5,51.19,91.55,51.25,91.55,51.36Z"/><path class="cls-1" d="M103.24,63.4h-2.09a2.47,2.47,0,0,1-1.85-.7,2.58,2.58,0,0,1-.7-1.88v-7a2.59,2.59,0,0,1,.7-1.89,2.51,2.51,0,0,1,1.85-.7h2.09a2.51,2.51,0,0,1,1.85.7,2.59,2.59,0,0,1,.69,1.89v.94q0,.18-.15.18h-.27q-.15,0-.15-.18v-.93a2.17,2.17,0,0,0-.51-1.52,1.92,1.92,0,0,0-1.46-.55h-2.09a1.92,1.92,0,0,0-1.46.55,2.17,2.17,0,0,0-.52,1.52v7a2.15,2.15,0,0,0,.52,1.52,1.89,1.89,0,0,0,1.46.55h2.09a1.89,1.89,0,0,0,1.46-.55,2.15,2.15,0,0,0,.51-1.52V57.93c0-.1,0-.15-.17-.15h-2.45c-.11,0-.17-.05-.17-.15V57.4c0-.1.06-.15.17-.15h2.85c.23,0,.34.12.34.36v3.21a2.58,2.58,0,0,1-.69,1.88A2.47,2.47,0,0,1,103.24,63.4Z"/><path class="cls-1" d="M113.4,51.36V63.23c0,.11-.05.17-.15.17H113c-.1,0-.15-.06-.15-.17V51.36c0-.11,0-.17.15-.17h.27C113.35,51.19,113.4,51.25,113.4,51.36Z"/><path class="cls-1" d="M124.17,63.4h-.26c-.1,0-.15-.06-.15-.17V51.88a.15.15,0,0,0-.17-.16h-2.93c-.11,0-.17,0-.17-.15v-.23c0-.1.06-.15.17-.15h6.76c.11,0,.17.05.17.15v.23c0,.1-.06.15-.17.15H124.5c-.12,0-.17.06-.17.16V63.23C124.33,63.34,124.28,63.4,124.17,63.4Z"/><path class="cls-1" d="M130.94,63.4h-.27c-.11,0-.15-.06-.11-.17l4-11.87c0-.11.1-.17.19-.17h.45a.2.2,0,0,1,.19.17l4,11.87c0,.11,0,.17-.11.17H139c-.09,0-.15-.06-.19-.17l-1.16-3.3h-5.31l-1.16,3.3C131.1,63.34,131,63.4,130.94,63.4Zm4-11.49-2.41,7.45h4.9L135,51.91Z"/><path class="cls-1" d="M148.87,63.4h-6c-.1,0-.15-.06-.15-.17V51.36c0-.11,0-.17.15-.17h.27c.1,0,.15.06.15.17V62.68c0,.1.05.15.17.15h5.39c.11,0,.17.05.17.15v.27C149,63.35,149,63.4,148.87,63.4Z"/><path class="cls-1" d="M85.26,46.33V30.08a.5.5,0,0,1,.56-.57h6.49a4.52,4.52,0,0,1,3.3,1.14,4.32,4.32,0,0,1,1.16,3.24V35a2.83,2.83,0,0,1-2.13,3,2.83,2.83,0,0,1,1.73.88,3,3,0,0,1,.65,2v1.62a4.33,4.33,0,0,1-1.17,3.25,4.45,4.45,0,0,1-3.27,1.13H85.82A.49.49,0,0,1,85.26,46.33ZM89,36.57h2.75A1.92,1.92,0,0,0,93,36.2a1.54,1.54,0,0,0,.4-1.2V33.94a1.59,1.59,0,0,0-.39-1.2,1.82,1.82,0,0,0-1.26-.36H89a.26.26,0,0,0-.3.29v3.6A.27.27,0,0,0,89,36.57ZM89,44h3a1.83,1.83,0,0,0,1.29-.37,1.57,1.57,0,0,0,.39-1.2V40.89a1.51,1.51,0,0,0-.4-1.19A2.06,2.06,0,0,0,92,39.35H89a.27.27,0,0,0-.3.3v4.08A.27.27,0,0,0,89,44Z"/><path class="cls-1" d="M114.94,46.33V44.7a2.1,2.1,0,0,1,.35-1.32l7.17-10.57V32.7H116a.5.5,0,0,1-.56-.57V30.08a.5.5,0,0,1,.56-.57h9.6q.54,0,.54.57V32.4a2.46,2.46,0,0,1-.4,1.41L119,43.6v.1h6.86a.47.47,0,0,1,.54.52v2.05c0,.42-.18.62-.54.62H115.51A.5.5,0,0,1,114.94,46.33Z"/><path class="cls-1" d="M129,46.33V44.7a2,2,0,0,1,.35-1.32l7.16-10.57V32.7h-6.46a.5.5,0,0,1-.57-.57V30.08a.5.5,0,0,1,.57-.57h9.6q.54,0,.54.57V32.4a2.46,2.46,0,0,1-.41,1.41l-6.73,9.79v.1H140a.47.47,0,0,1,.54.52v2.05c0,.42-.18.62-.54.62H129.59A.49.49,0,0,1,129,46.33Z"/><path class="cls-1" d="M103.56,28.31v-5a.5.5,0,0,0-.57-.57h-2.3a.5.5,0,0,0-.56.57v5Z"/><path class="cls-1" d="M112,28.31v-5c0-.36-.2-.54-.59-.54h-2.27a.5.5,0,0,0-.57.57v5Z"/><path class="cls-1" d="M108.59,29.51V42.33a1.35,1.35,0,0,1-1.6,1.59h-1.86a1.7,1.7,0,0,1-1.21-.36,1.74,1.74,0,0,1-.36-1.23V29.51h-3.43v13a4.35,4.35,0,0,0,1.16,3.27,4.5,4.5,0,0,0,3.3,1.13h3a4.5,4.5,0,0,0,3.28-1.14A4.35,4.35,0,0,0,112,42.49v-13Z"/><rect class="cls-1" x="76.69" y="23.48" width="20.5" height="4.11"/><rect class="cls-1" x="114.94" y="23.48" width="34.12" height="4.11"/></g></g></svg>