<svg xmlns="http://www.w3.org/2000/svg" viewBox="0 0 131.49 135.23"><defs><style>.cls-1{fill:#0339a6;}.cls-2{fill:#f2af5e;}.cls-3{fill:#fff;}</style></defs><g id="Layer_2" data-name="Layer 2"><g id="Layer_1-2" data-name="Layer 1"><rect class="cls-1" width="131.49" height="135.23"/><circle class="cls-2" cx="62.33" cy="43.18" r="21.86"/><path class="cls-3" d="M64.85,51a4,4,0,0,0,3-1.29,4.79,4.79,0,0,0,1.23-3.47,4.72,4.72,0,0,0-1.21-3.44,4.17,4.17,0,0,0-6,0,4.81,4.81,0,0,0-1.22,3.46,4.81,4.81,0,0,0,1.22,3.46A4,4,0,0,0,64.85,51Z"/><path class="cls-3" d="M53.2,46.58a9.63,9.63,0,0,0,1.08,4.64,9.46,9.46,0,0,0,.57.92V41a8.54,8.54,0,0,0-.57.93A9.61,9.61,0,0,0,53.2,46.58Z"/><path class="cls-3" d="M57.78,15.32h0a2.93,2.93,0,0,0-2.93,2.93v4.38a21.93,21.93,0,0,1,5.86-1.25V18.25A2.93,2.93,0,0,0,57.78,15.32Z"/><path class="cls-3" d="M53.2,11.43a.93.93,0,1,0-.65,0v12.2l.65-.31Z"/><path class="cls-3" d="M62.33,21.32q-.81,0-1.62.06V37.13A8.17,8.17,0,0,0,54.85,40v1a7.77,7.77,0,0,1,2.41-2.19,8.21,8.21,0,0,1,3.45-1.07v1.67a5.8,5.8,0,0,1,1.6-1.68,8.35,8.35,0,0,1,3.64,1,7.16,7.16,0,0,1,2.89,3.07,10.17,10.17,0,0,1,1,4.74,10.23,10.23,0,0,1-1,4.74A7.08,7.08,0,0,1,66,54.38a8,8,0,0,1-2.8.95l-.08,0a6.19,6.19,0,0,1-2.36-2.14v2.26a8.08,8.08,0,0,1-3.45-1.08,7.77,7.77,0,0,1-2.41-2.19v1a8.7,8.7,0,0,0,1.33,1.23,7.92,7.92,0,0,0,3.09,1.4H54.85V53.19a8.08,8.08,0,0,1-1.65-3v5.65h-.65V23.63a21.86,21.86,0,1,0,9.78-2.31Zm11.58,30.1a8.42,8.42,0,0,1-3,3.46A7.85,7.85,0,0,1,66.6,56.1a8,8,0,0,1-2.42-.36,8.6,8.6,0,0,0,2.06-.82,8,8,0,0,0,3.19-3.29,10.72,10.72,0,0,0,1.13-5.05,10.69,10.69,0,0,0-1.13-5,8,8,0,0,0-3.19-3.29,8.76,8.76,0,0,0-3.07-1,7.37,7.37,0,0,1,3.43-.78,7.92,7.92,0,0,1,4.28,1.2,8.33,8.33,0,0,1,3,3.43A11.41,11.41,0,0,1,75,46.24,11.51,11.51,0,0,1,73.91,51.42Z"/><path class="cls-3" d="M54.85,40V22.63q-.84.32-1.65.69V43A8.67,8.67,0,0,1,54.85,40Z"/><path class="cls-3" d="M32.38,91.5V78.05a.42.42,0,0,1,.47-.47h5.37a3.77,3.77,0,0,1,2.74.94,3.6,3.6,0,0,1,1,2.69v.91a2.36,2.36,0,0,1-1.77,2.47,2.29,2.29,0,0,1,1.43.72A2.43,2.43,0,0,1,42.12,87v1.35a3.59,3.59,0,0,1-1,2.68,3.71,3.71,0,0,1-2.71.94h-5.6A.42.42,0,0,1,32.38,91.5Zm3.09-8.08h2.28a1.58,1.58,0,0,0,1.06-.3,1.29,1.29,0,0,0,.33-1v-.87a1.36,1.36,0,0,0-.32-1,1.52,1.52,0,0,0-1-.3H35.47c-.16,0-.24.08-.24.25v3A.21.21,0,0,0,35.47,83.42Zm0,6.18H38A1.54,1.54,0,0,0,39,89.3a1.31,1.31,0,0,0,.33-1V87A1.25,1.25,0,0,0,39,86a1.63,1.63,0,0,0-1.1-.29H35.47a.21.21,0,0,0-.24.24v3.38C35.23,89.52,35.31,89.6,35.47,89.6Z"/><path class="cls-3" d="M47.18,92h-1.9a.41.41,0,0,1-.47-.47V78.05a.41.41,0,0,1,.47-.47H50.6a3.72,3.72,0,0,1,2.73,1,3.61,3.61,0,0,1,1,2.71V83a3.27,3.27,0,0,1-2,3.35v.09l2.39,5c.14.36,0,.54-.38.54H52.53a1.37,1.37,0,0,1-.58-.09.63.63,0,0,1-.29-.38l-2.24-4.83h-1.5q-.27,0-.27.24V91.5A.42.42,0,0,1,47.18,92Zm.71-7.59h2.2a1.53,1.53,0,0,0,1-.3,1.27,1.27,0,0,0,.34-1V81.36a1.35,1.35,0,0,0-.34-1,1.53,1.53,0,0,0-1-.31h-2.2c-.16,0-.24.08-.24.25v3.85A.21.21,0,0,0,47.89,84.38Z"/><path class="cls-3" d="M58.55,92H56.4c-.27,0-.36-.16-.27-.47l3.54-13.45a.64.64,0,0,1,.67-.47h3a.61.61,0,0,1,.67.47L67.52,91.5c.09.31,0,.47-.26.47H65.11a.43.43,0,0,1-.34-.1.78.78,0,0,1-.13-.37L64,89H59.64L59,91.5a.68.68,0,0,1-.15.37A.41.41,0,0,1,58.55,92Zm3.24-11.68-1.61,6.47h3.31l-1.61-6.47Z"/><path class="cls-3" d="M71.84,92H70a.41.41,0,0,1-.47-.47V78.05a.41.41,0,0,1,.47-.47h1.68a.62.62,0,0,1,.62.31l4.52,8.49h.09V78.05a.42.42,0,0,1,.47-.47h1.86a.42.42,0,0,1,.47.47V91.5a.42.42,0,0,1-.47.47H77.6a.75.75,0,0,1-.72-.45L72.4,83.2h-.09v8.3A.41.41,0,0,1,71.84,92Z"/><path class="cls-3" d="M82.61,91.5V78.05a.42.42,0,0,1,.47-.47h5.53a3.75,3.75,0,0,1,2.72,1,3.59,3.59,0,0,1,1,2.7v7.09a3.59,3.59,0,0,1-1,2.7,3.75,3.75,0,0,1-2.72,1H83.08A.42.42,0,0,1,82.61,91.5Zm3.09-2h2.44a1.11,1.11,0,0,0,1.32-1.32V81.36A1.11,1.11,0,0,0,88.14,80H85.7a.22.22,0,0,0-.25.25v9A.22.22,0,0,0,85.7,89.51Z"/><path class="cls-3" d="M32.36,127v-9.83c0-.09,0-.14.13-.14h3.87a2.05,2.05,0,0,1,1.53.58,2.14,2.14,0,0,1,.57,1.56V125a2.14,2.14,0,0,1-.57,1.56,2.09,2.09,0,0,1-1.53.58H32.49C32.4,127.18,32.36,127.13,32.36,127Zm.62-.3h3.38a1.57,1.57,0,0,0,1.21-.46A1.78,1.78,0,0,0,38,125v-5.8a1.77,1.77,0,0,0-.42-1.25,1.57,1.57,0,0,0-1.21-.46H33c-.1,0-.15,0-.15.13v9C32.83,126.7,32.88,126.74,33,126.74Z"/><path class="cls-3" d="M44.69,117.21V127c0,.09,0,.14-.12.14h-.22c-.09,0-.13-.05-.13-.14v-9.83c0-.09,0-.14.13-.14h.22C44.65,117.07,44.69,117.12,44.69,117.21Z"/><path class="cls-3" d="M54.37,127.18H52.64a2.11,2.11,0,0,1-1.54-.58,2.14,2.14,0,0,1-.57-1.56v-5.83a2.14,2.14,0,0,1,.57-1.56,2.07,2.07,0,0,1,1.54-.58h1.73a2,2,0,0,1,1.53.58,2.14,2.14,0,0,1,.57,1.56V120q0,.15-.12.15h-.22c-.09,0-.13,0-.13-.15v-.77a1.77,1.77,0,0,0-.42-1.25,1.57,1.57,0,0,0-1.21-.46H52.64a1.54,1.54,0,0,0-1.21.46,1.73,1.73,0,0,0-.43,1.25V125a1.74,1.74,0,0,0,.43,1.26,1.54,1.54,0,0,0,1.21.46h1.73a1.57,1.57,0,0,0,1.21-.46A1.78,1.78,0,0,0,56,125v-2.37c0-.08,0-.12-.14-.12h-2a.12.12,0,0,1-.14-.13v-.19c0-.08.05-.12.14-.12h2.36c.19,0,.28.09.28.29V125a2.14,2.14,0,0,1-.57,1.56A2.07,2.07,0,0,1,54.37,127.18Z"/><path class="cls-3" d="M62.78,117.21V127c0,.09,0,.14-.12.14h-.22c-.09,0-.13-.05-.13-.14v-9.83c0-.09,0-.14.13-.14h.22C62.74,117.07,62.78,117.12,62.78,117.21Z"/><path class="cls-3" d="M71.7,127.18h-.22a.12.12,0,0,1-.13-.14v-9.4c0-.09,0-.13-.14-.13H68.79c-.09,0-.14,0-.14-.13v-.18c0-.09,0-.13.14-.13h5.6c.09,0,.14,0,.14.13v.18c0,.09,0,.13-.14.13H72c-.1,0-.14,0-.14.13V127A.12.12,0,0,1,71.7,127.18Z"/><path class="cls-3" d="M77.3,127.18h-.22c-.09,0-.12-.05-.09-.14l3.3-9.83c0-.09.08-.14.16-.14h.37c.08,0,.13.05.16.14l3.3,9.83c0,.09,0,.14-.09.14H84c-.07,0-.12-.05-.16-.14l-1-2.74H78.43l-1,2.74C77.43,127.13,77.38,127.18,77.3,127.18Zm3.3-9.51-2,6.16h4l-2-6.16Z"/><path class="cls-3" d="M92.15,127.18h-5c-.09,0-.13-.05-.13-.14v-9.83c0-.09,0-.14.13-.14h.22c.08,0,.12.05.12.14v9.37c0,.09,0,.13.14.13h4.47c.09,0,.14,0,.14.12v.22C92.29,127.14,92.24,127.18,92.15,127.18Z"/><path class="cls-3" d="M39.48,113V99.59a.41.41,0,0,1,.47-.47h5.37a3.73,3.73,0,0,1,2.73.94,3.59,3.59,0,0,1,1,2.68v.92a2.34,2.34,0,0,1-1.77,2.46,2.38,2.38,0,0,1,1.44.73,2.43,2.43,0,0,1,.53,1.69v1.34a3.6,3.6,0,0,1-1,2.69,3.69,3.69,0,0,1-2.71.94H40A.41.41,0,0,1,39.48,113ZM42.57,105h2.28a1.53,1.53,0,0,0,1-.3,1.26,1.26,0,0,0,.34-1v-.87a1.31,1.31,0,0,0-.33-1,1.49,1.49,0,0,0-1-.3h-2.3a.22.22,0,0,0-.25.25v3A.22.22,0,0,0,42.57,105Zm0,6.18h2.5a1.55,1.55,0,0,0,1.07-.3,1.36,1.36,0,0,0,.32-1v-1.3a1.24,1.24,0,0,0-.33-1,1.65,1.65,0,0,0-1.1-.29H42.57c-.17,0-.25.08-.25.24v3.38A.22.22,0,0,0,42.57,111.14Z"/><path class="cls-3" d="M64.06,113V111.7a1.7,1.7,0,0,1,.29-1.1l5.93-8.75v-.09H64.93a.41.41,0,0,1-.47-.47v-1.7a.41.41,0,0,1,.47-.47h7.94c.3,0,.45.16.45.47v1.92a2.06,2.06,0,0,1-.33,1.17l-5.58,8.1v.09H73.1q.45,0,.45.42V113q0,.51-.45.51H64.53A.41.41,0,0,1,64.06,113Z"/><path class="cls-3" d="M75.72,113V111.7a1.7,1.7,0,0,1,.29-1.1l5.93-8.75v-.09H76.59a.42.42,0,0,1-.47-.47v-1.7a.42.42,0,0,1,.47-.47h8c.29,0,.44.16.44.47v1.92a2.06,2.06,0,0,1-.33,1.17l-5.58,8.1v.09h5.69q.45,0,.45.42V113q0,.51-.45.51H76.19A.41.41,0,0,1,75.72,113Z"/><path class="cls-2" d="M54.63,98.13V94a.41.41,0,0,0-.47-.47h-1.9a.42.42,0,0,0-.47.47v4.14Z"/><path class="cls-2" d="M61.64,98.13V94c0-.3-.17-.45-.49-.45H59.27a.41.41,0,0,0-.47.47v4.14Z"/><path class="cls-3" d="M58.8,99.12v10.61a1.12,1.12,0,0,1-1.33,1.32H55.93a1.11,1.11,0,0,1-1.3-1.32V99.12H51.79v10.74a3.63,3.63,0,0,0,1,2.71,3.73,3.73,0,0,0,2.73.94h2.46a3.74,3.74,0,0,0,2.72-1,3.59,3.59,0,0,0,1-2.7V99.12Z"/><rect class="cls-3" x="32.38" y="94.13" width="16.98" height="3.4"/><rect class="cls-3" x="64.06" y="94.13" width="28.25" height="3.4"/></g></g></svg>