<svg xmlns="http://www.w3.org/2000/svg" viewBox="0 0 123.41 55.39"><defs><style>.cls-1{fill:#f2af5e;}.cls-2{fill:#0339a6;}</style></defs><g id="Layer_2" data-name="Layer 2"><g id="Layer_1-2" data-name="Layer 1"><circle class="cls-1" cx="21.86" cy="33.53" r="21.86"/><path class="cls-2" d="M24.38,41.34a4,4,0,0,0,3-1.28,4.83,4.83,0,0,0,1.23-3.48,4.72,4.72,0,0,0-1.21-3.44,4,4,0,0,0-3-1.25,3.93,3.93,0,0,0-3,1.27,4.79,4.79,0,0,0-1.22,3.46,4.76,4.76,0,0,0,1.22,3.45A3.93,3.93,0,0,0,24.38,41.34Z"/><path class="cls-2" d="M12.73,36.92a9.61,9.61,0,0,0,1.08,4.64,7.22,7.22,0,0,0,.57.93V31.36a7.22,7.22,0,0,0-.57.93A9.59,9.59,0,0,0,12.73,36.92Z"/><path class="cls-2" d="M17.31,5.67h0a2.93,2.93,0,0,0-2.93,2.92V13a21.93,21.93,0,0,1,5.86-1.25V8.59A2.93,2.93,0,0,0,17.31,5.67Z"/><path class="cls-2" d="M12.73,1.78a.93.93,0,0,0,.59-.86.92.92,0,1,0-1.24.86V14l.65-.32Z"/><path class="cls-2" d="M21.86,11.66c-.55,0-1.09,0-1.62.07V27.47a8.29,8.29,0,0,0-4.5,1.61,8.78,8.78,0,0,0-1.36,1.29v1a7.85,7.85,0,0,1,2.4-2.19,8.16,8.16,0,0,1,3.46-1.07v1.67a5.71,5.71,0,0,1,1.6-1.69,8.5,8.5,0,0,1,3.64,1,7.25,7.25,0,0,1,2.89,3.06,10.23,10.23,0,0,1,1,4.74,10.24,10.24,0,0,1-1,4.75,7.25,7.25,0,0,1-2.89,3.06,8,8,0,0,1-2.8.94l-.08,0a6.27,6.27,0,0,1-2.36-2.14v2.25a8.16,8.16,0,0,1-3.46-1.07,7.85,7.85,0,0,1-2.4-2.19v1a8.22,8.22,0,0,0,1.33,1.23,7.94,7.94,0,0,0,3.09,1.41H14.38V43.53a8,8,0,0,1-1.65-3v5.65h-.65V14a21.84,21.84,0,1,0,9.78-2.32ZM33.44,41.77a8.55,8.55,0,0,1-3,3.46,8.25,8.25,0,0,1-6.71.85,8.51,8.51,0,0,0,2.07-.82A7.91,7.91,0,0,0,29,42a10.69,10.69,0,0,0,1.13-5A10.72,10.72,0,0,0,29,31.87a7.94,7.94,0,0,0-3.19-3.28,9.05,9.05,0,0,0-3.07-1,7.47,7.47,0,0,1,3.43-.77A7.92,7.92,0,0,1,30.41,28a8.43,8.43,0,0,1,3,3.42,11.47,11.47,0,0,1,1.11,5.17A11.56,11.56,0,0,1,33.44,41.77Z"/><path class="cls-2" d="M14.38,30.37V13c-.56.2-1.11.44-1.65.68V33.33A8.67,8.67,0,0,1,14.38,30.37Z"/><path class="cls-2" d="M63.49,16.82V3.36A.42.42,0,0,1,64,2.89h5.37a3.77,3.77,0,0,1,2.73.94,3.58,3.58,0,0,1,1,2.69v.92A2.34,2.34,0,0,1,71.26,9.9a2.3,2.3,0,0,1,1.43.73,2.42,2.42,0,0,1,.54,1.69v1.34a3.61,3.61,0,0,1-1,2.69,3.77,3.77,0,0,1-2.71.94H64A.42.42,0,0,1,63.49,16.82Zm3.09-8.08h2.28a1.58,1.58,0,0,0,1.06-.31,1.28,1.28,0,0,0,.33-1V6.56a1.32,1.32,0,0,0-.32-1,1.52,1.52,0,0,0-1-.3H66.58a.22.22,0,0,0-.25.24v3A.23.23,0,0,0,66.58,8.74Zm0,6.17h2.51a1.54,1.54,0,0,0,1.06-.3,1.28,1.28,0,0,0,.33-1v-1.3a1.27,1.27,0,0,0-.34-1A1.69,1.69,0,0,0,69,11H66.58a.22.22,0,0,0-.25.25v3.38A.22.22,0,0,0,66.58,14.91Z"/><path class="cls-2" d="M78.29,17.29h-1.9a.42.42,0,0,1-.48-.47V3.36a.42.42,0,0,1,.48-.47h5.32a3.69,3.69,0,0,1,2.73,1,3.59,3.59,0,0,1,1,2.7V8.31a3.27,3.27,0,0,1-2,3.36v.09l2.39,5c.14.36,0,.54-.38.54H83.64a1.34,1.34,0,0,1-.58-.09.71.71,0,0,1-.3-.38L80.53,12H79c-.18,0-.27.08-.27.25v4.59A.42.42,0,0,1,78.29,17.29ZM79,9.7h2.2a1.53,1.53,0,0,0,1-.3,1.28,1.28,0,0,0,.34-1V6.68a1.34,1.34,0,0,0-.34-1,1.48,1.48,0,0,0-1-.31H79a.21.21,0,0,0-.24.24V9.45C78.76,9.62,78.84,9.7,79,9.7Z"/><path class="cls-2" d="M89.66,17.29H87.51c-.27,0-.36-.16-.27-.47L90.78,3.36a.64.64,0,0,1,.67-.47h3a.61.61,0,0,1,.67.47l3.53,13.46c.09.31,0,.47-.27.47H96.22a.47.47,0,0,1-.34-.1.78.78,0,0,1-.13-.37l-.63-2.47H90.75l-.62,2.47a.68.68,0,0,1-.15.37A.45.45,0,0,1,89.66,17.29ZM92.9,5.6l-1.61,6.47H94.6L93,5.6Z"/><path class="cls-2" d="M103,17.29H101.1a.41.41,0,0,1-.47-.47V3.36a.41.41,0,0,1,.47-.47h1.67a.63.63,0,0,1,.63.32l4.52,8.48H108V3.36a.42.42,0,0,1,.47-.47h1.86a.42.42,0,0,1,.47.47V16.82a.42.42,0,0,1-.47.47h-1.63a.75.75,0,0,1-.72-.45l-4.48-8.33h-.09v8.31A.41.41,0,0,1,103,17.29Z"/><path class="cls-2" d="M113.72,16.82V3.36a.42.42,0,0,1,.47-.47h5.53a3.72,3.72,0,0,1,2.72,1,3.58,3.58,0,0,1,1,2.69v7.1a3.62,3.62,0,0,1-1,2.7,3.75,3.75,0,0,1-2.72.95h-5.53A.42.42,0,0,1,113.72,16.82Zm3.09-2h2.44a1.41,1.41,0,0,0,1-.3,1.41,1.41,0,0,0,.3-1V6.68a1.41,1.41,0,0,0-.3-1,1.41,1.41,0,0,0-1-.3h-2.44c-.17,0-.25.08-.25.24v9C116.56,14.74,116.64,14.82,116.81,14.82Z"/><path class="cls-2" d="M63.47,52.35V42.53c0-.1,0-.14.13-.14h3.86A2.07,2.07,0,0,1,69,43a2.1,2.1,0,0,1,.57,1.55v5.84A2.12,2.12,0,0,1,69,51.91a2.07,2.07,0,0,1-1.54.58H63.6C63.51,52.49,63.47,52.45,63.47,52.35Zm.61-.3h3.38a1.57,1.57,0,0,0,1.21-.45,1.77,1.77,0,0,0,.43-1.26v-5.8a1.75,1.75,0,0,0-.43-1.26,1.57,1.57,0,0,0-1.21-.45H64.08c-.09,0-.14,0-.14.12v9C63.94,52,64,52.05,64.08,52.05Z"/><path class="cls-2" d="M75.8,42.53v9.82c0,.1,0,.14-.12.14h-.22c-.09,0-.13,0-.13-.14V42.53c0-.1,0-.14.13-.14h.22C75.76,42.39,75.8,42.43,75.8,42.53Z"/><path class="cls-2" d="M85.48,52.49H83.75a2.07,2.07,0,0,1-1.54-.58,2.12,2.12,0,0,1-.57-1.55V44.52A2.1,2.1,0,0,1,82.21,43a2.07,2.07,0,0,1,1.54-.58h1.73A2.05,2.05,0,0,1,87,43a2.1,2.1,0,0,1,.57,1.55v.79c0,.09,0,.14-.12.14h-.22c-.09,0-.13-.05-.13-.14v-.77a1.79,1.79,0,0,0-.42-1.26,1.6,1.6,0,0,0-1.21-.45H83.75a1.57,1.57,0,0,0-1.21.45,1.75,1.75,0,0,0-.43,1.26v5.8a1.77,1.77,0,0,0,.43,1.26,1.57,1.57,0,0,0,1.21.45h1.73a1.6,1.6,0,0,0,1.21-.45,1.81,1.81,0,0,0,.42-1.26V48c0-.09,0-.13-.14-.13h-2c-.09,0-.14,0-.14-.13v-.18c0-.09,0-.13.14-.13H87.3c.19,0,.28.1.28.3v2.66A2.12,2.12,0,0,1,87,51.91,2.05,2.05,0,0,1,85.48,52.49Z"/><path class="cls-2" d="M93.89,42.53v9.82c0,.1,0,.14-.12.14h-.22c-.09,0-.13,0-.13-.14V42.53c0-.1,0-.14.13-.14h.22C93.85,42.39,93.89,42.43,93.89,42.53Z"/><path class="cls-2" d="M102.81,52.49h-.22c-.08,0-.13,0-.13-.14V43c0-.08,0-.12-.14-.12H99.9a.12.12,0,0,1-.14-.13v-.19c0-.08,0-.12.14-.12h5.6c.09,0,.14,0,.14.12v.19a.12.12,0,0,1-.14.13h-2.42c-.1,0-.14,0-.14.12v9.4C102.94,52.45,102.89,52.49,102.81,52.49Z"/><path class="cls-2" d="M108.41,52.49h-.22c-.09,0-.12,0-.09-.14l3.3-9.82c0-.1.08-.14.16-.14h.37c.08,0,.13,0,.16.14l3.3,9.82c0,.1,0,.14-.09.14h-.24c-.07,0-.12,0-.16-.14l-1-2.73h-4.41l-1,2.73C108.54,52.45,108.49,52.49,108.41,52.49Zm3.3-9.51-2,6.17h4l-2-6.17Z"/><path class="cls-2" d="M123.26,52.49h-5c-.09,0-.13,0-.13-.14V42.53c0-.1,0-.14.13-.14h.22c.08,0,.12,0,.12.14V51.9c0,.08,0,.12.14.12h4.47c.09,0,.14,0,.14.13v.22C123.4,52.45,123.35,52.49,123.26,52.49Z"/><path class="cls-2" d="M70.59,38.36V24.9a.41.41,0,0,1,.47-.47h5.37a3.77,3.77,0,0,1,2.73.94,3.61,3.61,0,0,1,1,2.69V29a2.34,2.34,0,0,1-1.77,2.46,2.33,2.33,0,0,1,1.44.73,2.46,2.46,0,0,1,.53,1.69V35.2a3.61,3.61,0,0,1-1,2.69,3.73,3.73,0,0,1-2.71.94H71.06A.41.41,0,0,1,70.59,38.36Zm3.09-8.08H76A1.53,1.53,0,0,0,77,30a1.25,1.25,0,0,0,.34-1V28.1a1.28,1.28,0,0,0-.33-1,1.49,1.49,0,0,0-1-.3h-2.3c-.17,0-.25.08-.25.24v3A.22.22,0,0,0,73.68,30.28Zm0,6.17h2.5a1.55,1.55,0,0,0,1.07-.3,1.32,1.32,0,0,0,.32-1v-1.3a1.27,1.27,0,0,0-.33-1,1.7,1.7,0,0,0-1.1-.29H73.68a.22.22,0,0,0-.25.25v3.38C73.43,36.37,73.51,36.45,73.68,36.45Z"/><path class="cls-2" d="M95.16,38.36V37a1.65,1.65,0,0,1,.3-1.09l5.93-8.76v-.09H96a.41.41,0,0,1-.47-.47V24.9a.41.41,0,0,1,.47-.47H104c.3,0,.45.16.45.47v1.93a2,2,0,0,1-.34,1.16L98.52,36.1v.08h5.69a.39.39,0,0,1,.45.43v1.7c0,.34-.15.52-.45.52H95.63A.42.42,0,0,1,95.16,38.36Z"/><path class="cls-2" d="M106.83,38.36V37a1.65,1.65,0,0,1,.29-1.09l5.93-8.76v-.09H107.7a.41.41,0,0,1-.47-.47V24.9a.42.42,0,0,1,.47-.47h8c.29,0,.44.16.44.47v1.93a2,2,0,0,1-.33,1.16l-5.58,8.11v.08h5.69a.39.39,0,0,1,.45.43v1.7c0,.34-.15.52-.45.52H107.3A.41.41,0,0,1,106.83,38.36Z"/><path class="cls-1" d="M85.74,23.44V19.31a.41.41,0,0,0-.47-.47h-1.9a.41.41,0,0,0-.47.47v4.13Z"/><path class="cls-1" d="M92.75,23.44V19.28c0-.29-.17-.44-.5-.44H90.37a.41.41,0,0,0-.47.47v4.13Z"/><path class="cls-2" d="M89.9,24.43V35a1.11,1.11,0,0,1-1.32,1.32H87A1.11,1.11,0,0,1,85.74,35V24.43H82.9V35.18a3.63,3.63,0,0,0,1,2.71,3.77,3.77,0,0,0,2.73.94h2.46a3.7,3.7,0,0,0,2.72-1,3.58,3.58,0,0,0,1-2.69V24.43Z"/><rect class="cls-2" x="63.49" y="19.44" width="16.98" height="3.4"/><rect class="cls-2" x="95.16" y="19.44" width="28.25" height="3.4"/></g></g></svg>