<svg xmlns="http://www.w3.org/2000/svg" viewBox="0 0 63.97 52.93"><defs><style>.cls-1{fill:#0339a6;}.cls-2{fill:#fff;}</style></defs><g id="Layer_2" data-name="Layer 2"><g id="Layer_1-2" data-name="Layer 1"><path class="cls-1" d="M0,14.86V.5A.44.44,0,0,1,.52,0H6.26A4,4,0,0,1,9.17,1a3.86,3.86,0,0,1,1,2.87v1A2.51,2.51,0,0,1,8.31,7.48a2.45,2.45,0,0,1,1.53.77,2.62,2.62,0,0,1,.57,1.81v1.43a3.82,3.82,0,0,1-1,2.87,4,4,0,0,1-2.88,1h-6A.44.44,0,0,1,0,14.86Zm3.3-8.63H5.75a1.64,1.64,0,0,0,1.13-.32,1.36,1.36,0,0,0,.35-1.06V3.92a1.42,1.42,0,0,0-.34-1.07,1.62,1.62,0,0,0-1.11-.32H3.32a.23.23,0,0,0-.26.26V6C3.06,6.15,3.14,6.23,3.32,6.23Zm0,6.6H6a1.62,1.62,0,0,0,1.14-.33,1.38,1.38,0,0,0,.34-1.06V10.06A1.34,1.34,0,0,0,7.12,9,1.76,1.76,0,0,0,6,8.69H3.32c-.18,0-.26.09-.26.27v3.6C3.06,12.74,3.14,12.83,3.32,12.83Z"/><path class="cls-1" d="M15.81,15.36h-2a.44.44,0,0,1-.5-.5V.5a.44.44,0,0,1,.5-.5h5.69a4,4,0,0,1,2.91,1,3.84,3.84,0,0,1,1.05,2.89V5.78a3.49,3.49,0,0,1-2.12,3.58v.1l2.55,5.33c.14.38,0,.57-.4.57H21.52a1.37,1.37,0,0,1-.62-.1.7.7,0,0,1-.31-.4L18.2,9.7H16.6c-.19,0-.29.09-.29.26v4.9A.44.44,0,0,1,15.81,15.36Zm.77-8.1h2.34A1.66,1.66,0,0,0,20,6.94a1.34,1.34,0,0,0,.36-1V4A1.42,1.42,0,0,0,20,3a1.61,1.61,0,0,0-1.12-.33H16.58c-.18,0-.27.08-.27.26V7A.24.24,0,0,0,16.58,7.26Z"/><path class="cls-1" d="M27.94,15.36H25.65c-.28,0-.38-.17-.28-.5L29.14.5a.69.69,0,0,1,.72-.5H33a.65.65,0,0,1,.72.5l3.77,14.36c.1.33,0,.5-.28.5h-2.3a.46.46,0,0,1-.35-.11.72.72,0,0,1-.15-.39l-.67-2.63H29.11l-.66,2.63a.8.8,0,0,1-.16.39A.49.49,0,0,1,27.94,15.36ZM31.41,2.89l-1.72,6.9h3.53L31.5,2.89Z"/><path class="cls-1" d="M42.13,15.36h-2a.44.44,0,0,1-.5-.5V.5a.44.44,0,0,1,.5-.5h1.79a.67.67,0,0,1,.67.33l4.83,9.06h.09V.5A.44.44,0,0,1,48,0h2a.44.44,0,0,1,.5.5V14.86a.44.44,0,0,1-.5.5H48.27a.79.79,0,0,1-.76-.48L42.73,6h-.1v8.86A.44.44,0,0,1,42.13,15.36Z"/><path class="cls-1" d="M53.62,14.86V.5a.45.45,0,0,1,.51-.5H60a4,4,0,0,1,2.9,1,3.86,3.86,0,0,1,1,2.88v7.58a3.82,3.82,0,0,1-1,2.87,4,4,0,0,1-2.9,1h-5.9A.45.45,0,0,1,53.62,14.86Zm3.3-2.13h2.6a1.53,1.53,0,0,0,1.09-.32,1.5,1.5,0,0,0,.32-1.09V4A1.48,1.48,0,0,0,60.61,3a1.53,1.53,0,0,0-1.09-.32h-2.6c-.18,0-.26.08-.26.26v9.58A.23.23,0,0,0,56.92,12.73Z"/><path class="cls-1" d="M0,52.78V42.29c0-.1,0-.15.13-.15H4.26a2.22,2.22,0,0,1,1.64.62,2.32,2.32,0,0,1,.61,1.67v6.22a2.29,2.29,0,0,1-.61,1.66,2.22,2.22,0,0,1-1.64.62H.13C0,52.93,0,52.88,0,52.78Zm.65-.32H4.26A1.65,1.65,0,0,0,5.55,52,1.89,1.89,0,0,0,6,50.63V44.44a1.89,1.89,0,0,0-.46-1.34,1.69,1.69,0,0,0-1.29-.49H.65c-.1,0-.15,0-.15.14v9.58C.5,52.42.55,52.46.65,52.46Z"/><path class="cls-1" d="M13.16,42.29V52.78c0,.1-.05.15-.14.15h-.23c-.09,0-.13,0-.13-.15V42.29c0-.1,0-.15.13-.15H13C13.11,42.14,13.16,42.19,13.16,42.29Z"/><path class="cls-1" d="M23.48,52.93H21.64A2.21,2.21,0,0,1,20,52.31a2.25,2.25,0,0,1-.61-1.66V44.43A2.27,2.27,0,0,1,20,42.76a2.21,2.21,0,0,1,1.64-.62h1.84a2.22,2.22,0,0,1,1.64.62,2.27,2.27,0,0,1,.61,1.67v.83c0,.1-.05.15-.13.15h-.24c-.09,0-.13,0-.13-.15v-.82a1.85,1.85,0,0,0-.46-1.34,1.69,1.69,0,0,0-1.29-.49H21.64a1.73,1.73,0,0,0-1.3.49,1.89,1.89,0,0,0-.45,1.34v6.19A1.89,1.89,0,0,0,20.34,52a1.69,1.69,0,0,0,1.3.49h1.84A1.65,1.65,0,0,0,24.77,52a1.85,1.85,0,0,0,.46-1.34V48.1c0-.09-.05-.13-.15-.13H22.91c-.1,0-.15,0-.15-.14v-.2c0-.09,0-.13.15-.13h2.52c.2,0,.3.1.3.31v2.84a2.25,2.25,0,0,1-.61,1.66A2.22,2.22,0,0,1,23.48,52.93Z"/><path class="cls-1" d="M32.46,42.29V52.78c0,.1,0,.15-.13.15h-.24c-.09,0-.13,0-.13-.15V42.29c0-.1,0-.15.13-.15h.24C32.42,42.14,32.46,42.19,32.46,42.29Z"/><path class="cls-1" d="M42,52.93h-.23c-.09,0-.14,0-.14-.15v-10c0-.09,0-.14-.15-.14H38.88c-.1,0-.15,0-.15-.13v-.2c0-.09.05-.14.15-.14h6c.1,0,.15,0,.15.14v.2c0,.09,0,.13-.15.13H42.27c-.1,0-.16,0-.16.14v10C42.11,52.88,42.07,52.93,42,52.93Z"/><path class="cls-1" d="M48,52.93h-.24c-.1,0-.13,0-.1-.15l3.53-10.49c0-.1.09-.15.16-.15h.41c.08,0,.13,0,.16.15l3.53,10.49c0,.1,0,.15-.1.15h-.25a.18.18,0,0,1-.17-.15l-1-2.92H49.17l-1,2.92Q48.08,52.93,48,52.93Zm3.52-10.15-2.13,6.58h4.33l-2.13-6.58Z"/><path class="cls-1" d="M63.8,52.93H58.52c-.09,0-.14,0-.14-.15V42.29c0-.1,0-.15.14-.15h.23c.09,0,.14,0,.14.15v10c0,.09,0,.14.15.14H63.8c.1,0,.15,0,.15.13v.24C64,52.89,63.9,52.93,63.8,52.93Z"/><path class="cls-1" d="M7.59,37.84V23.49A.44.44,0,0,1,8.1,23h5.73a4,4,0,0,1,2.91,1,3.8,3.8,0,0,1,1,2.87v1a2.5,2.5,0,0,1-1.89,2.62,2.51,2.51,0,0,1,1.53.78A2.59,2.59,0,0,1,18,33v1.44a3.83,3.83,0,0,1-1,2.86,4,4,0,0,1-2.89,1h-6A.45.45,0,0,1,7.59,37.84Zm3.3-8.62h2.44a1.66,1.66,0,0,0,1.12-.32,1.37,1.37,0,0,0,.36-1.06V26.9a1.41,1.41,0,0,0-.35-1.06,1.62,1.62,0,0,0-1.11-.32H10.89a.23.23,0,0,0-.26.26V29A.23.23,0,0,0,10.89,29.22Zm0,6.59h2.67a1.62,1.62,0,0,0,1.14-.32,1.39,1.39,0,0,0,.35-1.06V33A1.33,1.33,0,0,0,14.69,32a1.76,1.76,0,0,0-1.17-.31H10.89a.23.23,0,0,0-.26.26v3.61C10.63,35.73,10.71,35.81,10.89,35.81Z"/><path class="cls-1" d="M33.82,37.84V36.41a1.82,1.82,0,0,1,.31-1.17l6.33-9.34v-.1H34.75a.44.44,0,0,1-.5-.5V23.49a.44.44,0,0,1,.5-.5h8.48c.32,0,.48.16.48.5v2.05a2.13,2.13,0,0,1-.36,1.24l-6,8.65v.1h6.07q.48,0,.48.45V37.8c0,.36-.16.55-.48.55H34.32A.45.45,0,0,1,33.82,37.84Z"/><path class="cls-1" d="M46.27,37.84V36.41a1.82,1.82,0,0,1,.31-1.17l6.33-9.34v-.1H47.2a.44.44,0,0,1-.5-.5V23.49a.44.44,0,0,1,.5-.5h8.48c.32,0,.48.16.48.5v2.05a2.13,2.13,0,0,1-.36,1.24l-5.95,8.65v.1h6.07c.32,0,.47.15.47.45V37.8c0,.36-.15.55-.47.55H46.77A.44.44,0,0,1,46.27,37.84Z"/><path class="cls-2" d="M23.77,21.93V17.52a.45.45,0,0,0-.51-.51h-2a.45.45,0,0,0-.5.51v4.41Z"/><path class="cls-2" d="M31.24,21.93V17.49c0-.32-.17-.48-.52-.48h-2a.45.45,0,0,0-.5.51v4.41Z"/><path class="cls-1" d="M28.21,23V34.31a1.19,1.19,0,0,1-1.41,1.41H25.15a1.48,1.48,0,0,1-1.06-.32,1.5,1.5,0,0,1-.32-1.09V23h-3V34.45a3.84,3.84,0,0,0,1,2.89,4,4,0,0,0,2.91,1H27.3a4,4,0,0,0,2.9-1,3.83,3.83,0,0,0,1-2.88V23Z"/><rect class="cls-1" x="0.02" y="17.66" width="18.12" height="3.63"/><rect class="cls-1" x="33.82" y="17.66" width="30.15" height="3.63"/></g></g></svg>