<svg xmlns="http://www.w3.org/2000/svg" viewBox="0 0 43.72 55.39"><defs><style>.cls-1{fill:#f2af5e;}.cls-2{fill:#0339a6;}</style></defs><g id="Layer_2" data-name="Layer 2"><g id="Layer_1-2" data-name="Layer 1"><circle class="cls-1" cx="21.86" cy="33.53" r="21.86"/><path class="cls-2" d="M24.38,41.34a4,4,0,0,0,3-1.28,4.83,4.83,0,0,0,1.23-3.48,4.72,4.72,0,0,0-1.21-3.44,4,4,0,0,0-3-1.25,3.93,3.93,0,0,0-3,1.27,4.79,4.79,0,0,0-1.22,3.46,4.76,4.76,0,0,0,1.22,3.45A3.93,3.93,0,0,0,24.38,41.34Z"/><path class="cls-2" d="M12.73,36.92a9.61,9.61,0,0,0,1.08,4.64,7.22,7.22,0,0,0,.57.93V31.36a7.22,7.22,0,0,0-.57.93A9.59,9.59,0,0,0,12.73,36.92Z"/><path class="cls-2" d="M17.31,5.67h0a2.93,2.93,0,0,0-2.93,2.92V13a21.93,21.93,0,0,1,5.86-1.25V8.59A2.93,2.93,0,0,0,17.31,5.67Z"/><path class="cls-2" d="M12.73,1.78a.93.93,0,0,0,.59-.86.92.92,0,1,0-1.24.86V14l.65-.32Z"/><path class="cls-2" d="M21.86,11.66c-.55,0-1.09,0-1.62.07V27.47a8.29,8.29,0,0,0-4.5,1.61,8.78,8.78,0,0,0-1.36,1.29v1a7.85,7.85,0,0,1,2.4-2.19,8.16,8.16,0,0,1,3.46-1.07v1.67a5.71,5.71,0,0,1,1.6-1.69,8.5,8.5,0,0,1,3.64,1,7.25,7.25,0,0,1,2.89,3.06,10.23,10.23,0,0,1,1,4.74,10.24,10.24,0,0,1-1,4.75,7.25,7.25,0,0,1-2.89,3.06,8,8,0,0,1-2.8.94l-.08,0a6.27,6.27,0,0,1-2.36-2.14v2.25a8.16,8.16,0,0,1-3.46-1.07,7.85,7.85,0,0,1-2.4-2.19v1a8.22,8.22,0,0,0,1.33,1.23,7.94,7.94,0,0,0,3.09,1.41H14.38V43.53a8,8,0,0,1-1.65-3v5.65h-.65V14a21.84,21.84,0,1,0,9.78-2.32ZM33.44,41.77a8.55,8.55,0,0,1-3,3.46,8.25,8.25,0,0,1-6.71.85,8.51,8.51,0,0,0,2.07-.82A7.91,7.91,0,0,0,29,42a10.69,10.69,0,0,0,1.13-5A10.72,10.72,0,0,0,29,31.87a7.94,7.94,0,0,0-3.19-3.28,9.05,9.05,0,0,0-3.07-1,7.47,7.47,0,0,1,3.43-.77A7.92,7.92,0,0,1,30.41,28a8.43,8.43,0,0,1,3,3.42,11.47,11.47,0,0,1,1.11,5.17A11.56,11.56,0,0,1,33.44,41.77Z"/><path class="cls-2" d="M14.38,30.37V13c-.56.2-1.11.44-1.65.68V33.33A8.67,8.67,0,0,1,14.38,30.37Z"/></g></g></svg>