<svg xmlns="http://www.w3.org/2000/svg" viewBox="0 0 72.4 141.56"><g id="Layer_2" data-name="Layer 2"><g id="Layer_1-2" data-name="Layer 1"><path d="M39.24,49.93a4.78,4.78,0,0,0,3.6-1.55,5.81,5.81,0,0,0,1.49-4.2A5.69,5.69,0,0,0,42.86,40a4.85,4.85,0,0,0-3.62-1.51,4.77,4.77,0,0,0-3.58,1.53,5.77,5.77,0,0,0-1.46,4.18,5.76,5.76,0,0,0,1.46,4.17A4.77,4.77,0,0,0,39.24,49.93Z"/><path d="M25.17,44.6a11.61,11.61,0,0,0,1.3,5.6,8.45,8.45,0,0,0,.7,1.12V37.88a9,9,0,0,0-.7,1.11A11.65,11.65,0,0,0,25.17,44.6Z"/><path d="M30.7,6.84h0a3.54,3.54,0,0,0-3.53,3.54v5.29a26.26,26.26,0,0,1,7.07-1.5V10.38A3.55,3.55,0,0,0,30.7,6.84Z"/><path d="M25.17,2.15a1.12,1.12,0,1,0-.79,0V16.88l.79-.38Z"/><path d="M36.2,14.09c-.66,0-1.32,0-2,.08v19a9.76,9.76,0,0,0-7.07,3.5v1.2a9.2,9.2,0,0,1,2.9-2.65,9.8,9.8,0,0,1,4.17-1.29v2a6.89,6.89,0,0,1,1.93-2,10.18,10.18,0,0,1,4.4,1.25,8.68,8.68,0,0,1,3.49,3.7A12.36,12.36,0,0,1,45.3,44.6a12.34,12.34,0,0,1-1.24,5.72A8.7,8.7,0,0,1,40.57,54a9.83,9.83,0,0,1-3.39,1.13l-.09,0a7.51,7.51,0,0,1-2.85-2.58v2.72A9.68,9.68,0,0,1,30.07,54a9.05,9.05,0,0,1-2.9-2.64v1.26a9.83,9.83,0,0,0,1.59,1.49,9.65,9.65,0,0,0,3.74,1.69H27.17V52.58a9.6,9.6,0,0,1-2-3.64v6.82h-.79V16.88A26.41,26.41,0,1,0,36.2,14.09Zm14,36.36a10.26,10.26,0,0,1-3.66,4.18,9.54,9.54,0,0,1-5.17,1.46,9.69,9.69,0,0,1-2.93-.43,10.68,10.68,0,0,0,2.5-1,9.63,9.63,0,0,0,3.85-4,12.92,12.92,0,0,0,1.36-6.1,12.86,12.86,0,0,0-1.36-6.1,9.57,9.57,0,0,0-3.85-4,10.77,10.77,0,0,0-3.71-1.24,9,9,0,0,1,4.14-.93,9.61,9.61,0,0,1,5.17,1.44,10.14,10.14,0,0,1,3.66,4.14,13.85,13.85,0,0,1,1.34,6.24A14,14,0,0,1,50.18,50.45Z"/><path d="M27.17,36.68v-21c-.69.25-1.35.53-2,.83V40.26A10.22,10.22,0,0,1,27.17,36.68Z"/><path d="M0,98.47V82.22a.5.5,0,0,1,.57-.57H7.08a4.57,4.57,0,0,1,3.3,1.13A4.36,4.36,0,0,1,11.54,86v1.11a2.83,2.83,0,0,1-2.14,3,2.83,2.83,0,0,1,1.74.88,3,3,0,0,1,.64,2v1.62a4.32,4.32,0,0,1-1.16,3.25A4.49,4.49,0,0,1,7.35,99H.59A.5.5,0,0,1,0,98.47Zm3.74-9.76H6.51a1.87,1.87,0,0,0,1.27-.37,1.54,1.54,0,0,0,.41-1.2V86.08a1.57,1.57,0,0,0-.39-1.2,1.84,1.84,0,0,0-1.26-.36H3.76c-.2,0-.3.09-.3.29v3.6A.27.27,0,0,0,3.76,88.71Zm0,7.46h3a1.87,1.87,0,0,0,1.29-.37,1.57,1.57,0,0,0,.39-1.2V93a1.51,1.51,0,0,0-.41-1.19,2,2,0,0,0-1.32-.35h-3a.27.27,0,0,0-.3.3v4.08A.27.27,0,0,0,3.76,96.17Z"/><path d="M17.89,99H15.6a.5.5,0,0,1-.57-.56V82.22a.5.5,0,0,1,.57-.57H22a4.53,4.53,0,0,1,3.3,1.16,4.39,4.39,0,0,1,1.19,3.27v2.11a4,4,0,0,1-2.41,4.06v.11l2.9,6c.16.44,0,.65-.46.65H24.36a1.59,1.59,0,0,1-.71-.11.8.8,0,0,1-.35-.45l-2.7-5.85H18.79q-.33,0-.33.3v5.55A.5.5,0,0,1,17.89,99Zm.87-9.16h2.65a1.82,1.82,0,0,0,1.27-.37,1.5,1.5,0,0,0,.41-1.17V86.22A1.6,1.6,0,0,0,22.68,85a1.82,1.82,0,0,0-1.27-.38H18.76a.27.27,0,0,0-.3.3v4.65A.27.27,0,0,0,18.76,89.87Z"/><path d="M31.63,99H29c-.32,0-.43-.19-.32-.56L33,82.22a.77.77,0,0,1,.81-.57h3.6a.73.73,0,0,1,.81.57l4.27,16.25c.11.37,0,.56-.33.56H39.55a.54.54,0,0,1-.41-.12,1,1,0,0,1-.16-.44l-.76-3H33l-.76,3a.79.79,0,0,1-.17.44A.54.54,0,0,1,31.63,99Zm3.92-14.11L33.6,92.73h4l-1.94-7.81Z"/><path d="M47.69,99H45.44a.5.5,0,0,1-.57-.56V82.22a.5.5,0,0,1,.57-.57h2a.77.77,0,0,1,.76.38l5.46,10.24h.11v-10a.5.5,0,0,1,.56-.57h2.25a.5.5,0,0,1,.57.57V98.47a.5.5,0,0,1-.57.56h-2a.9.9,0,0,1-.86-.54L48.36,88.43h-.11v10A.5.5,0,0,1,47.69,99Z"/><path d="M60.69,98.47V82.22a.5.5,0,0,1,.57-.57h6.68a4.48,4.48,0,0,1,3.28,1.15,4.35,4.35,0,0,1,1.18,3.26v8.57a4.35,4.35,0,0,1-1.18,3.25A4.48,4.48,0,0,1,67.94,99H61.26A.5.5,0,0,1,60.69,98.47Zm3.73-2.41h3A1.35,1.35,0,0,0,69,94.46V86.22A1.71,1.71,0,0,0,68.6,85a1.74,1.74,0,0,0-1.23-.37h-3a.27.27,0,0,0-.3.3V95.76A.27.27,0,0,0,64.42,96.06Z"/><path d="M0,141.38V129.52c0-.12.05-.17.15-.17H4.82a2.47,2.47,0,0,1,1.85.7,2.53,2.53,0,0,1,.7,1.88v7a2.53,2.53,0,0,1-.7,1.88,2.48,2.48,0,0,1-1.85.71H.15Q0,141.56,0,141.38ZM.74,141H4.82a1.87,1.87,0,0,0,1.46-.55A2.09,2.09,0,0,0,6.8,139v-7a2.11,2.11,0,0,0-.52-1.52,1.87,1.87,0,0,0-1.46-.55H.74c-.11,0-.17.05-.17.15v10.84C.57,141,.63,141,.74,141Z"/><path d="M14.89,129.52v11.86q0,.18-.15.18h-.27q-.15,0-.15-.18V129.52c0-.12,0-.17.15-.17h.27C14.84,129.35,14.89,129.4,14.89,129.52Z"/><path d="M26.58,141.56H24.49a2.48,2.48,0,0,1-1.85-.71,2.53,2.53,0,0,1-.7-1.88v-7a2.53,2.53,0,0,1,.7-1.88,2.47,2.47,0,0,1,1.85-.7h2.09a2.47,2.47,0,0,1,1.85.7,2.56,2.56,0,0,1,.69,1.88v.95c0,.11-.05.17-.15.17H28.7c-.1,0-.15-.06-.15-.17V132a2.15,2.15,0,0,0-.51-1.52,1.89,1.89,0,0,0-1.46-.55H24.49a1.87,1.87,0,0,0-1.46.55,2.11,2.11,0,0,0-.52,1.52v7a2.09,2.09,0,0,0,.52,1.52,1.87,1.87,0,0,0,1.46.55h2.09a1.89,1.89,0,0,0,1.46-.55,2.13,2.13,0,0,0,.51-1.52v-2.86c0-.1-.06-.15-.17-.15H25.93a.15.15,0,0,1-.17-.16v-.22a.15.15,0,0,1,.17-.16h2.85c.23,0,.34.12.34.36V139a2.56,2.56,0,0,1-.69,1.88A2.48,2.48,0,0,1,26.58,141.56Z"/><path d="M36.74,129.52v11.86q0,.18-.15.18h-.27q-.15,0-.15-.18V129.52c0-.12,0-.17.15-.17h.27C36.69,129.35,36.74,129.4,36.74,129.52Z"/><path d="M47.51,141.56h-.26q-.15,0-.15-.18V130q0-.15-.18-.15H44c-.11,0-.17,0-.17-.15v-.23c0-.1.06-.15.17-.15h6.76c.11,0,.17.05.17.15v.23c0,.1-.06.15-.17.15H47.84q-.18,0-.18.15v11.35Q47.66,141.56,47.51,141.56Z"/><path d="M54.28,141.56H54c-.11,0-.15-.06-.11-.18l4-11.86a.19.19,0,0,1,.19-.17h.45c.09,0,.15.05.19.17l4,11.86c0,.12,0,.18-.11.18h-.29c-.09,0-.15-.06-.19-.18L61,138.08H55.65l-1.16,3.3Q54.41,141.56,54.28,141.56Zm4-11.49-2.42,7.44h4.9l-2.41-7.44Z"/><path d="M72.21,141.56h-6q-.15,0-.15-.18V129.52c0-.12,0-.17.15-.17h.26c.1,0,.16.05.16.17v11.31c0,.11,0,.16.17.16h5.39c.11,0,.17,0,.17.15v.26A.15.15,0,0,1,72.21,141.56Z"/><path d="M8.59,124.48V108.23a.5.5,0,0,1,.57-.57h6.49A4.53,4.53,0,0,1,19,108.8,4.35,4.35,0,0,1,20.11,112v1.11a2.84,2.84,0,0,1-2.14,3,2.78,2.78,0,0,1,1.74.88,2.92,2.92,0,0,1,.64,2v1.62a4.3,4.3,0,0,1-1.16,3.24,4.46,4.46,0,0,1-3.27,1.14H9.16A.5.5,0,0,1,8.59,124.48Zm3.73-9.76h2.76a1.87,1.87,0,0,0,1.27-.36,1.58,1.58,0,0,0,.41-1.21V112.1a1.61,1.61,0,0,0-.39-1.21,1.84,1.84,0,0,0-1.26-.36H12.32a.26.26,0,0,0-.29.3v3.59A.26.26,0,0,0,12.32,114.72Zm0,7.46h3a1.88,1.88,0,0,0,1.29-.36,1.61,1.61,0,0,0,.39-1.21v-1.56a1.5,1.5,0,0,0-.41-1.19,2,2,0,0,0-1.32-.36h-3a.26.26,0,0,0-.29.3v4.09A.26.26,0,0,0,12.32,122.18Z"/><path d="M38.28,124.48v-1.62a2.11,2.11,0,0,1,.35-1.33L45.79,111v-.11H39.33a.5.5,0,0,1-.57-.56v-2.06a.5.5,0,0,1,.57-.57h9.6q.54,0,.54.57v2.33a2.34,2.34,0,0,1-.41,1.4l-6.73,9.79v.11H49.2q.54,0,.54.51v2.06c0,.41-.18.62-.54.62H38.85A.5.5,0,0,1,38.28,124.48Z"/><path d="M52.36,124.48v-1.62a2.11,2.11,0,0,1,.35-1.33L59.88,111v-.11H53.42a.5.5,0,0,1-.57-.56v-2.06a.5.5,0,0,1,.57-.57H63q.54,0,.54.57v2.33a2.41,2.41,0,0,1-.41,1.4l-6.73,9.79v.11h6.86c.37,0,.55.17.55.51v2.06c0,.41-.18.62-.55.62H52.93A.5.5,0,0,1,52.36,124.48Z"/><path d="M26.9,106.47v-5a.5.5,0,0,0-.57-.56H24a.5.5,0,0,0-.57.56v5Z"/><path d="M35.36,106.47v-5q0-.54-.6-.54H32.49a.49.49,0,0,0-.56.56v5Z"/><path d="M31.93,107.66v12.82a1.35,1.35,0,0,1-1.6,1.59H28.46a1.69,1.69,0,0,1-1.2-.36,1.71,1.71,0,0,1-.36-1.23V107.66H23.46v13a4.33,4.33,0,0,0,1.17,3.27,4.49,4.49,0,0,0,3.29,1.14h3a4.48,4.48,0,0,0,3.28-1.15,4.33,4.33,0,0,0,1.18-3.26v-13Z"/><rect x="0.02" y="101.63" width="20.5" height="4.11"/><rect x="38.28" y="101.63" width="34.12" height="4.11"/></g></g></svg>