<svg xmlns="http://www.w3.org/2000/svg" viewBox="0 0 63.97 128.11"><defs><style>.cls-1{fill:#fff;}.cls-2{fill:#0339a6;}</style></defs><g id="Layer_2" data-name="Layer 2"><g id="Layer_1-2" data-name="Layer 1"><circle class="cls-1" cx="31.98" cy="35.78" r="23.33"/><path class="cls-2" d="M34.67,44.12a4.27,4.27,0,0,0,3.18-1.37A5.13,5.13,0,0,0,39.17,39a5.06,5.06,0,0,0-1.3-3.67A4.3,4.3,0,0,0,34.67,34a4.2,4.2,0,0,0-3.16,1.36,5.13,5.13,0,0,0-1.3,3.69,5.13,5.13,0,0,0,1.3,3.69A4.23,4.23,0,0,0,34.67,44.12Z"/><path class="cls-2" d="M22.24,39.4a10.29,10.29,0,0,0,1.15,5,8.93,8.93,0,0,0,.61,1V33.47a8.93,8.93,0,0,0-.61,1A10.28,10.28,0,0,0,22.24,39.4Z"/><path class="cls-2" d="M27.13,6.05h0A3.13,3.13,0,0,0,24,9.17v4.68a23.12,23.12,0,0,1,6.25-1.33V9.17A3.12,3.12,0,0,0,27.13,6.05Z"/><path class="cls-2" d="M22.24,1.9A1,1,0,0,0,22.87,1a1,1,0,1,0-1.33.92v13l.7-.34Z"/><path class="cls-2" d="M32,12.45c-.58,0-1.16,0-1.73.07v16.8A8.84,8.84,0,0,0,25.45,31,9.88,9.88,0,0,0,24,32.4v1.07a8.3,8.3,0,0,1,2.56-2.34A8.73,8.73,0,0,1,30.25,30v1.79A6.09,6.09,0,0,1,32,30a9,9,0,0,1,3.89,1.1,7.79,7.79,0,0,1,3.08,3.27A11,11,0,0,1,40,39.4a11,11,0,0,1-1.1,5.07,7.79,7.79,0,0,1-3.08,3.27,8.78,8.78,0,0,1-3,1l-.08,0a6.63,6.63,0,0,1-2.52-2.28v2.41a8.73,8.73,0,0,1-3.69-1.15A8.3,8.3,0,0,1,24,45.34v1.12a9.81,9.81,0,0,0,1.41,1.31,8.54,8.54,0,0,0,3.31,1.5H24V46.46a8.64,8.64,0,0,1-1.76-3.22v6h-.7V14.92A23.32,23.32,0,1,0,32,12.45ZM44.34,44.57a9,9,0,0,1-3.24,3.7,8.36,8.36,0,0,1-4.57,1.29A8.46,8.46,0,0,1,34,49.18a9,9,0,0,0,2.21-.88,8.32,8.32,0,0,0,3.39-3.51,11.29,11.29,0,0,0,1.21-5.39A11.27,11.27,0,0,0,39.55,34a8.32,8.32,0,0,0-3.39-3.51,9.56,9.56,0,0,0-3.28-1.1,8,8,0,0,1,3.65-.82,8.44,8.44,0,0,1,4.57,1.28,8.88,8.88,0,0,1,3.24,3.65A12.22,12.22,0,0,1,45.52,39,12.3,12.3,0,0,1,44.34,44.57Z"/><path class="cls-2" d="M24,32.4V13.85c-.6.22-1.19.47-1.76.73v21A9.28,9.28,0,0,1,24,32.4Z"/><path class="cls-2" d="M0,90V75.68a.44.44,0,0,1,.5-.5H6.26a4,4,0,0,1,2.91,1,3.86,3.86,0,0,1,1,2.87v1a2.51,2.51,0,0,1-1.89,2.63,2.45,2.45,0,0,1,1.53.77,2.64,2.64,0,0,1,.57,1.81v1.43a3.82,3.82,0,0,1-1,2.87,3.93,3.93,0,0,1-2.88,1h-6A.44.44,0,0,1,0,90Zm3.3-8.63H5.75a1.64,1.64,0,0,0,1.13-.32A1.36,1.36,0,0,0,7.23,80V79.1A1.42,1.42,0,0,0,6.89,78a1.62,1.62,0,0,0-1.11-.32H3.32a.23.23,0,0,0-.26.26v3.18C3.06,81.33,3.14,81.41,3.32,81.41Zm0,6.6H6a1.62,1.62,0,0,0,1.14-.33,1.38,1.38,0,0,0,.34-1.06V85.24a1.34,1.34,0,0,0-.35-1A1.76,1.76,0,0,0,6,83.87H3.32c-.18,0-.26.09-.26.27v3.61A.23.23,0,0,0,3.32,88Z"/><path class="cls-2" d="M15.81,90.54h-2a.44.44,0,0,1-.5-.5V75.68a.44.44,0,0,1,.5-.5h5.69a4,4,0,0,1,2.91,1,3.85,3.85,0,0,1,1.05,2.89V81a3.49,3.49,0,0,1-2.12,3.58v.1L23.86,90c.14.38,0,.57-.4.57H21.52a1.37,1.37,0,0,1-.62-.1.66.66,0,0,1-.31-.4L18.2,84.88H16.6c-.19,0-.29.09-.29.26V90A.44.44,0,0,1,15.81,90.54Zm.77-8.1h2.34A1.66,1.66,0,0,0,20,82.12a1.34,1.34,0,0,0,.36-1V79.22A1.42,1.42,0,0,0,20,78.14a1.61,1.61,0,0,0-1.12-.33H16.58a.24.24,0,0,0-.27.26v4.11A.24.24,0,0,0,16.58,82.44Z"/><path class="cls-2" d="M27.94,90.54H25.65c-.28,0-.38-.17-.28-.5l3.77-14.36a.69.69,0,0,1,.72-.5H33a.65.65,0,0,1,.72.5L37.52,90c.1.33,0,.5-.28.5h-2.3a.46.46,0,0,1-.35-.11.72.72,0,0,1-.15-.39l-.67-2.63H29.11L28.45,90a.8.8,0,0,1-.16.39A.49.49,0,0,1,27.94,90.54Zm3.47-12.47L29.69,85h3.53l-1.72-6.9Z"/><path class="cls-2" d="M42.13,90.54h-2a.44.44,0,0,1-.5-.5V75.68a.44.44,0,0,1,.5-.5h1.79a.67.67,0,0,1,.67.33l4.83,9.06h.09V75.68a.44.44,0,0,1,.5-.5h2a.44.44,0,0,1,.5.5V90a.44.44,0,0,1-.5.5H48.27a.79.79,0,0,1-.76-.48l-4.78-8.88h-.1V90A.44.44,0,0,1,42.13,90.54Z"/><path class="cls-2" d="M53.62,90V75.68a.45.45,0,0,1,.51-.5H60a4,4,0,0,1,2.9,1,3.82,3.82,0,0,1,1,2.87v7.58a3.82,3.82,0,0,1-1,2.87,4,4,0,0,1-2.9,1h-5.9A.45.45,0,0,1,53.62,90Zm3.3-2.13h2.6a1.53,1.53,0,0,0,1.09-.32,1.5,1.5,0,0,0,.32-1.09V79.22a1.5,1.5,0,0,0-.32-1.09,1.53,1.53,0,0,0-1.09-.32h-2.6a.23.23,0,0,0-.26.26v9.58A.23.23,0,0,0,56.92,87.91Z"/><path class="cls-2" d="M0,128V117.47c0-.1,0-.15.13-.15H4.26a2.22,2.22,0,0,1,1.64.62,2.32,2.32,0,0,1,.61,1.67v6.22a2.29,2.29,0,0,1-.61,1.66,2.19,2.19,0,0,1-1.64.62H.13C0,128.11,0,128.06,0,128Zm.65-.32H4.26a1.68,1.68,0,0,0,1.29-.48A1.94,1.94,0,0,0,6,125.81v-6.19a1.89,1.89,0,0,0-.46-1.34,1.69,1.69,0,0,0-1.29-.49H.65c-.1,0-.15,0-.15.14v9.58C.5,127.6.55,127.64.65,127.64Z"/><path class="cls-2" d="M13.16,117.47V128c0,.1-.05.15-.14.15h-.23c-.09,0-.13-.05-.13-.15V117.47c0-.1,0-.15.13-.15H13C13.11,117.32,13.16,117.37,13.16,117.47Z"/><path class="cls-2" d="M23.48,128.11H21.64a2.17,2.17,0,0,1-1.64-.62,2.25,2.25,0,0,1-.61-1.66v-6.22a2.27,2.27,0,0,1,.61-1.67,2.21,2.21,0,0,1,1.64-.62h1.84a2.22,2.22,0,0,1,1.64.62,2.27,2.27,0,0,1,.61,1.67v.83c0,.11-.05.16-.13.16h-.24c-.09,0-.13,0-.13-.16v-.82a1.85,1.85,0,0,0-.46-1.34,1.69,1.69,0,0,0-1.29-.49H21.64a1.73,1.73,0,0,0-1.3.49,1.89,1.89,0,0,0-.45,1.34v6.19a1.93,1.93,0,0,0,.45,1.35,1.72,1.72,0,0,0,1.3.48h1.84a1.68,1.68,0,0,0,1.29-.48,1.89,1.89,0,0,0,.46-1.35v-2.53c0-.09-.05-.13-.15-.13H22.91c-.1,0-.15-.05-.15-.14v-.2c0-.09,0-.13.15-.13h2.52c.2,0,.3.1.3.31v2.84a2.25,2.25,0,0,1-.61,1.66A2.19,2.19,0,0,1,23.48,128.11Z"/><path class="cls-2" d="M32.46,117.47V128c0,.1,0,.15-.13.15h-.24c-.09,0-.13-.05-.13-.15V117.47c0-.1,0-.15.13-.15h.24C32.42,117.32,32.46,117.37,32.46,117.47Z"/><path class="cls-2" d="M42,128.11h-.23c-.09,0-.14-.05-.14-.15v-10c0-.09,0-.14-.15-.14H38.88c-.1,0-.15,0-.15-.13v-.2c0-.09.05-.14.15-.14h6c.1,0,.15.05.15.14v.2c0,.09,0,.13-.15.13H42.27c-.1,0-.16,0-.16.14v10C42.11,128.06,42.07,128.11,42,128.11Z"/><path class="cls-2" d="M48,128.11h-.24c-.1,0-.13-.05-.1-.15l3.53-10.49c0-.1.09-.15.16-.15h.41c.08,0,.13.05.16.15L55.41,128c0,.1,0,.15-.1.15h-.25a.18.18,0,0,1-.17-.15l-1-2.92H49.17l-1,2.92Q48.08,128.11,48,128.11ZM51.48,118l-2.13,6.58h4.33L51.55,118Z"/><path class="cls-2" d="M63.8,128.11H58.52c-.09,0-.14-.05-.14-.15V117.47c0-.1,0-.15.14-.15h.23c.09,0,.14.05.14.15v10c0,.09,0,.14.15.14H63.8c.1,0,.15,0,.15.13V128C64,128.07,63.9,128.11,63.8,128.11Z"/><path class="cls-2" d="M7.59,113V98.67a.44.44,0,0,1,.51-.5h5.73a4,4,0,0,1,2.91,1,3.8,3.8,0,0,1,1,2.87v1a2.49,2.49,0,0,1-1.89,2.62,2.51,2.51,0,0,1,1.53.78,2.59,2.59,0,0,1,.57,1.8v1.44a3.83,3.83,0,0,1-1,2.86,4,4,0,0,1-2.89,1h-6A.45.45,0,0,1,7.59,113Zm3.3-8.62h2.44a1.66,1.66,0,0,0,1.12-.32,1.37,1.37,0,0,0,.36-1.06v-.94a1.41,1.41,0,0,0-.35-1.06,1.62,1.62,0,0,0-1.11-.32H10.89a.23.23,0,0,0-.26.26v3.18A.23.23,0,0,0,10.89,104.4Zm0,6.59h2.67a1.62,1.62,0,0,0,1.14-.32,1.39,1.39,0,0,0,.35-1.06v-1.39a1.33,1.33,0,0,0-.36-1,1.76,1.76,0,0,0-1.17-.31H10.89a.23.23,0,0,0-.26.26v3.61C10.63,110.91,10.71,111,10.89,111Z"/><path class="cls-2" d="M33.82,113v-1.43a1.84,1.84,0,0,1,.31-1.17l6.33-9.34V101H34.75a.45.45,0,0,1-.5-.51V98.67a.44.44,0,0,1,.5-.5h8.48c.32,0,.48.16.48.5v2a2.13,2.13,0,0,1-.36,1.24l-6,8.65v.1h6.07q.48,0,.48.45V113c0,.36-.16.55-.48.55H34.32A.45.45,0,0,1,33.82,113Z"/><path class="cls-2" d="M46.27,113v-1.43a1.84,1.84,0,0,1,.31-1.17l6.33-9.34V101H47.2a.44.44,0,0,1-.5-.51V98.67a.44.44,0,0,1,.5-.5h8.48c.32,0,.48.16.48.5v2A2.13,2.13,0,0,1,55.8,102l-5.95,8.65v.1h6.07c.32,0,.47.15.47.45V113c0,.36-.15.55-.47.55H46.77A.44.44,0,0,1,46.27,113Z"/><path class="cls-1" d="M23.77,97.11V92.7a.45.45,0,0,0-.51-.51h-2a.45.45,0,0,0-.5.51v4.41Z"/><path class="cls-1" d="M31.24,97.11V92.67c0-.32-.17-.48-.52-.48h-2a.45.45,0,0,0-.5.51v4.41Z"/><path class="cls-2" d="M28.21,98.17v11.32a1.19,1.19,0,0,1-1.41,1.41H25.15a1.48,1.48,0,0,1-1.06-.32,1.5,1.5,0,0,1-.32-1.09V98.17h-3v11.46a3.84,3.84,0,0,0,1,2.89,4,4,0,0,0,2.91,1H27.3a4,4,0,0,0,2.9-1,3.83,3.83,0,0,0,1-2.88V98.17Z"/><rect class="cls-2" x="0.02" y="92.84" width="18.12" height="3.63"/><rect class="cls-2" x="33.82" y="92.84" width="30.15" height="3.63"/></g></g></svg>