<svg xmlns="http://www.w3.org/2000/svg" viewBox="0 0 46.66 59.11"><defs><style>.cls-1{fill:#fff;}.cls-2{fill:#0339a6;}</style></defs><g id="Layer_2" data-name="Layer 2"><g id="Layer_1-2" data-name="Layer 1"><circle class="cls-1" cx="23.33" cy="35.78" r="23.33"/><path class="cls-2" d="M26,44.12a4.27,4.27,0,0,0,3.18-1.37A5.17,5.17,0,0,0,30.51,39a5,5,0,0,0-1.3-3.67A4.27,4.27,0,0,0,26,34a4.19,4.19,0,0,0-3.16,1.36,5.08,5.08,0,0,0-1.3,3.69,5.08,5.08,0,0,0,1.3,3.69A4.21,4.21,0,0,0,26,44.12Z"/><path class="cls-2" d="M13.58,39.4a10.41,10.41,0,0,0,1.15,5,10.84,10.84,0,0,0,.62,1V33.47a10.84,10.84,0,0,0-.62,1A10.39,10.39,0,0,0,13.58,39.4Z"/><path class="cls-2" d="M18.47,6.05h0a3.12,3.12,0,0,0-3.12,3.12v4.68a23.12,23.12,0,0,1,6.25-1.33V9.17A3.13,3.13,0,0,0,18.47,6.05Z"/><path class="cls-2" d="M13.58,1.9a1,1,0,1,0-.69,0v13l.69-.34Z"/><path class="cls-2" d="M23.33,12.45c-.58,0-1.16,0-1.73.07v16.8A8.78,8.78,0,0,0,16.8,31a9.88,9.88,0,0,0-1.45,1.36v1.07a8.3,8.3,0,0,1,2.56-2.34A8.73,8.73,0,0,1,21.6,30v1.79A6.19,6.19,0,0,1,23.3,30a9,9,0,0,1,3.89,1.1,7.75,7.75,0,0,1,3.09,3.27,11,11,0,0,1,1.1,5.06,11,11,0,0,1-1.1,5.07,7.75,7.75,0,0,1-3.09,3.27,8.8,8.8,0,0,1-3,1l-.08,0a6.63,6.63,0,0,1-2.52-2.28v2.41a8.73,8.73,0,0,1-3.69-1.15,8.3,8.3,0,0,1-2.56-2.34v1.12a9.31,9.31,0,0,0,1.41,1.31,8.56,8.56,0,0,0,3.3,1.5H15.35V46.46a8.67,8.67,0,0,1-1.77-3.22v6h-.69V14.92a23.32,23.32,0,1,0,10.44-2.47ZM35.68,44.57a9,9,0,0,1-3.23,3.7,8.81,8.81,0,0,1-7.15.91,9,9,0,0,0,2.2-.88,8.35,8.35,0,0,0,3.4-3.51,11.4,11.4,0,0,0,1.21-5.39A11.39,11.39,0,0,0,30.9,34a8.35,8.35,0,0,0-3.4-3.51,9.51,9.51,0,0,0-3.27-1.1,8,8,0,0,1,3.65-.82,8.49,8.49,0,0,1,4.57,1.28,8.86,8.86,0,0,1,3.23,3.65A12.22,12.22,0,0,1,36.87,39,12.3,12.3,0,0,1,35.68,44.57Z"/><path class="cls-2" d="M15.35,32.4V13.85c-.6.22-1.19.47-1.77.73v21A9.47,9.47,0,0,1,15.35,32.4Z"/></g></g></svg>