<svg xmlns="http://www.w3.org/2000/svg" viewBox="0 0 59.94 119.25"><defs><style>.cls-1{fill:#f2af5e;}.cls-2{fill:#0339a6;}</style></defs><g id="Layer_2" data-name="Layer 2"><g id="Layer_1-2" data-name="Layer 1"><circle class="cls-1" cx="29.97" cy="33.53" r="21.86"/><path class="cls-2" d="M32.49,41.34a4,4,0,0,0,3-1.28,4.83,4.83,0,0,0,1.23-3.48,4.72,4.72,0,0,0-1.22-3.44,4,4,0,0,0-3-1.25,3.92,3.92,0,0,0-3,1.27,4.79,4.79,0,0,0-1.22,3.46,4.76,4.76,0,0,0,1.22,3.45A3.92,3.92,0,0,0,32.49,41.34Z"/><path class="cls-2" d="M20.84,36.92a9.6,9.6,0,0,0,1.07,4.64,8.6,8.6,0,0,0,.58.93V31.36a8.6,8.6,0,0,0-.58.93A9.59,9.59,0,0,0,20.84,36.92Z"/><path class="cls-2" d="M25.42,5.67h0a2.93,2.93,0,0,0-2.93,2.92V13a21.85,21.85,0,0,1,5.86-1.25V8.59A2.93,2.93,0,0,0,25.42,5.67Z"/><path class="cls-2" d="M20.84,1.78A.92.92,0,0,0,20.51,0a.92.92,0,0,0-.33,1.78V14l.66-.32Z"/><path class="cls-2" d="M30,11.66c-.55,0-1.09,0-1.62.07V27.47a8.29,8.29,0,0,0-4.5,1.61,8.78,8.78,0,0,0-1.36,1.29v1a7.85,7.85,0,0,1,2.4-2.19,8.11,8.11,0,0,1,3.46-1.07v1.67A5.59,5.59,0,0,1,30,28.08a8.54,8.54,0,0,1,3.64,1,7.25,7.25,0,0,1,2.89,3.06,10.23,10.23,0,0,1,1,4.74,10.24,10.24,0,0,1-1,4.75,7.25,7.25,0,0,1-2.89,3.06,8.06,8.06,0,0,1-2.8.94l-.08,0a6.2,6.2,0,0,1-2.36-2.14v2.25a8.11,8.11,0,0,1-3.46-1.07,7.85,7.85,0,0,1-2.4-2.19v1a8.59,8.59,0,0,0,1.32,1.23,8,8,0,0,0,3.1,1.41H22.49V43.53a8,8,0,0,1-1.65-3v5.65h-.66V14A21.85,21.85,0,1,0,30,11.66ZM41.54,41.77a8.41,8.41,0,0,1-3,3.46,8.22,8.22,0,0,1-6.7.85,8.85,8.85,0,0,0,2.07-.82A7.83,7.83,0,0,0,37.06,42a10.57,10.57,0,0,0,1.13-5,10.6,10.6,0,0,0-1.13-5.05,7.86,7.86,0,0,0-3.18-3.28,9.05,9.05,0,0,0-3.07-1,7.42,7.42,0,0,1,3.42-.77A7.87,7.87,0,0,1,38.51,28a8.29,8.29,0,0,1,3,3.42,11.34,11.34,0,0,1,1.12,5.17A11.43,11.43,0,0,1,41.54,41.77Z"/><path class="cls-2" d="M22.49,30.37V13c-.56.2-1.11.44-1.65.68V33.33A8.5,8.5,0,0,1,22.49,30.37Z"/><path class="cls-2" d="M0,83.58V70.13a.41.41,0,0,1,.47-.47H5.86a3.73,3.73,0,0,1,2.73.94,3.58,3.58,0,0,1,1,2.68v.92a2.34,2.34,0,0,1-1.77,2.46,2.33,2.33,0,0,1,1.43.73,2.42,2.42,0,0,1,.54,1.69v1.34a3.56,3.56,0,0,1-1,2.69,3.72,3.72,0,0,1-2.7.94H.49A.42.42,0,0,1,0,83.58ZM3.11,75.5H5.39a1.48,1.48,0,0,0,1.05-.31,1.25,1.25,0,0,0,.34-1v-.87a1.33,1.33,0,0,0-.32-1,1.53,1.53,0,0,0-1-.3H3.11c-.17,0-.25.08-.25.24v3A.22.22,0,0,0,3.11,75.5Zm0,6.17H5.62a1.54,1.54,0,0,0,1.06-.3,1.28,1.28,0,0,0,.32-1v-1.3a1.28,1.28,0,0,0-.33-1,1.7,1.7,0,0,0-1.1-.29H3.11a.22.22,0,0,0-.25.25v3.38C2.86,81.59,2.94,81.67,3.11,81.67Z"/><path class="cls-2" d="M14.82,84.05H12.91a.42.42,0,0,1-.47-.47V70.13a.41.41,0,0,1,.47-.47h5.33a3.76,3.76,0,0,1,2.73,1,3.6,3.6,0,0,1,1,2.71v1.74a3.27,3.27,0,0,1-2,3.36v.09l2.4,5c.13.36,0,.54-.38.54H20.17a1.42,1.42,0,0,1-.59-.09.7.7,0,0,1-.29-.38l-2.24-4.84h-1.5c-.17,0-.26.08-.26.25v4.59A.42.42,0,0,1,14.82,84.05Zm.71-7.59h2.2a1.57,1.57,0,0,0,1.05-.3,1.27,1.27,0,0,0,.33-1V73.44a1.33,1.33,0,0,0-.33-1,1.51,1.51,0,0,0-1.05-.31h-2.2a.21.21,0,0,0-.24.24v3.85C15.29,76.38,15.37,76.46,15.53,76.46Z"/><path class="cls-2" d="M26.19,84.05H24c-.27,0-.36-.16-.27-.47L27.3,70.13a.64.64,0,0,1,.68-.47h3c.38,0,.6.15.67.47l3.54,13.45c.09.31,0,.47-.27.47H32.74a.46.46,0,0,1-.33-.1.77.77,0,0,1-.14-.37l-.62-2.46H27.28l-.62,2.46a.68.68,0,0,1-.15.37A.49.49,0,0,1,26.19,84.05Zm3.24-11.69-1.61,6.47h3.31l-1.61-6.47Z"/><path class="cls-2" d="M39.48,84.05H37.62a.42.42,0,0,1-.47-.47V70.13a.41.41,0,0,1,.47-.47H39.3a.63.63,0,0,1,.63.31l4.52,8.48h.09V70.13a.41.41,0,0,1,.47-.47h1.86a.41.41,0,0,1,.47.47V83.58a.42.42,0,0,1-.47.47H45.23a.75.75,0,0,1-.71-.45L40,75.27H40v8.31A.42.42,0,0,1,39.48,84.05Z"/><path class="cls-2" d="M50.25,83.58V70.13a.41.41,0,0,1,.47-.47h5.53a3.71,3.71,0,0,1,2.72,1,3.58,3.58,0,0,1,1,2.69v7.1a3.62,3.62,0,0,1-1,2.7,3.75,3.75,0,0,1-2.72,1H50.72A.41.41,0,0,1,50.25,83.58Zm3.09-2h2.44a1.45,1.45,0,0,0,1-.31,1.41,1.41,0,0,0,.3-1V73.44a1.41,1.41,0,0,0-.3-1,1.45,1.45,0,0,0-1-.3H53.34c-.17,0-.25.08-.25.24v9A.22.22,0,0,0,53.34,81.59Z"/><path class="cls-2" d="M0,119.11v-9.82c0-.1,0-.14.13-.14H4a2.07,2.07,0,0,1,1.54.58,2.12,2.12,0,0,1,.57,1.55v5.84a2.12,2.12,0,0,1-.57,1.55,2.07,2.07,0,0,1-1.54.58H.13C0,119.25,0,119.21,0,119.11Zm.61-.3H4a1.57,1.57,0,0,0,1.21-.45,1.77,1.77,0,0,0,.43-1.26v-5.8A1.75,1.75,0,0,0,5.2,110,1.57,1.57,0,0,0,4,109.59H.61c-.09,0-.14,0-.14.12v9C.47,118.77.52,118.81.61,118.81Z"/><path class="cls-2" d="M12.33,109.29v9.82c0,.1,0,.14-.13.14H12c-.08,0-.12,0-.12-.14v-9.82c0-.1,0-.14.12-.14h.22C12.29,109.15,12.33,109.19,12.33,109.29Z"/><path class="cls-2" d="M22,119.25H20.27a2.05,2.05,0,0,1-1.53-.58,2.12,2.12,0,0,1-.57-1.55v-5.84a2.12,2.12,0,0,1,.57-1.55,2.05,2.05,0,0,1,1.53-.58H22a2.07,2.07,0,0,1,1.54.58,2.12,2.12,0,0,1,.57,1.55v.79c0,.09,0,.14-.13.14h-.22c-.08,0-.12,0-.12-.14v-.77a1.75,1.75,0,0,0-.43-1.26,1.57,1.57,0,0,0-1.21-.45H20.27a1.6,1.6,0,0,0-1.21.45,1.79,1.79,0,0,0-.42,1.26v5.8a1.81,1.81,0,0,0,.42,1.26,1.6,1.6,0,0,0,1.21.45H22a1.57,1.57,0,0,0,1.21-.45,1.77,1.77,0,0,0,.43-1.26v-2.37c0-.09-.05-.13-.14-.13h-2c-.1,0-.14,0-.14-.13v-.18c0-.09,0-.13.14-.13h2.36c.19,0,.28.1.28.3v2.66a2.12,2.12,0,0,1-.57,1.55A2.07,2.07,0,0,1,22,119.25Z"/><path class="cls-2" d="M30.42,109.29v9.82c0,.1,0,.14-.13.14h-.22c-.08,0-.12,0-.12-.14v-9.82c0-.1,0-.14.12-.14h.22C30.38,109.15,30.42,109.19,30.42,109.29Z"/><path class="cls-2" d="M39.34,119.25h-.22c-.09,0-.13,0-.13-.14v-9.4c0-.08,0-.12-.14-.12H36.43a.12.12,0,0,1-.14-.13v-.19c0-.08.05-.12.14-.12H42c.09,0,.14,0,.14.12v.19a.12.12,0,0,1-.14.13H39.61q-.15,0-.15.12v9.4C39.46,119.21,39.42,119.25,39.34,119.25Z"/><path class="cls-2" d="M44.94,119.25h-.22c-.09,0-.13,0-.09-.14l3.3-9.82c0-.1.08-.14.15-.14h.38a.17.17,0,0,1,.16.14l3.3,9.82c0,.1,0,.14-.09.14h-.24a.17.17,0,0,1-.16-.14l-1-2.73h-4.4l-1,2.73C45.07,119.21,45,119.25,44.94,119.25Zm3.3-9.51-2,6.17H50.3l-2-6.17Z"/><path class="cls-2" d="M59.79,119.25h-5c-.08,0-.12,0-.12-.14v-9.82c0-.1,0-.14.12-.14h.22c.09,0,.13,0,.13.14v9.37c0,.08,0,.12.14.12h4.47c.09,0,.14,0,.14.13v.22C59.93,119.21,59.88,119.25,59.79,119.25Z"/><path class="cls-2" d="M7.12,105.12V91.66a.41.41,0,0,1,.47-.47H13a3.77,3.77,0,0,1,2.73.94,3.61,3.61,0,0,1,1,2.69v.92a2.34,2.34,0,0,1-1.77,2.46,2.27,2.27,0,0,1,1.43.73,2.42,2.42,0,0,1,.54,1.69V102a3.61,3.61,0,0,1-1,2.69,3.75,3.75,0,0,1-2.71.94H7.59A.41.41,0,0,1,7.12,105.12ZM10.2,97h2.29a1.48,1.48,0,0,0,1-.31,1.28,1.28,0,0,0,.33-1v-.88a1.28,1.28,0,0,0-.32-1,1.5,1.5,0,0,0-1-.3H10.2a.21.21,0,0,0-.24.24v3A.22.22,0,0,0,10.2,97Zm0,6.17h2.51a1.53,1.53,0,0,0,1.06-.3,1.28,1.28,0,0,0,.33-1v-1.3a1.24,1.24,0,0,0-.34-1,1.67,1.67,0,0,0-1.09-.29H10.2c-.16,0-.24.08-.24.25V103A.21.21,0,0,0,10.2,103.21Z"/><path class="cls-2" d="M31.69,105.12v-1.35a1.73,1.73,0,0,1,.29-1.09l5.94-8.76v-.08H32.57a.41.41,0,0,1-.47-.47V91.66a.41.41,0,0,1,.47-.47h7.94c.3,0,.45.16.45.47v1.93a2,2,0,0,1-.34,1.16l-5.57,8.11V103h5.68q.45,0,.45.42v1.7c0,.35-.15.52-.45.52H32.16A.42.42,0,0,1,31.69,105.12Z"/><path class="cls-2" d="M43.35,105.12v-1.35a1.73,1.73,0,0,1,.29-1.09l5.94-8.76v-.08H44.23a.41.41,0,0,1-.47-.47V91.66a.41.41,0,0,1,.47-.47h7.94c.3,0,.45.16.45.47v1.93a2,2,0,0,1-.34,1.16l-5.57,8.11V103H52.4c.3,0,.44.14.44.42v1.7c0,.35-.14.52-.44.52H43.82A.42.42,0,0,1,43.35,105.12Z"/><path class="cls-1" d="M22.27,90.2V86.07a.42.42,0,0,0-.47-.47H19.9a.41.41,0,0,0-.47.47V90.2Z"/><path class="cls-1" d="M29.28,90.2V86.05c0-.3-.17-.45-.5-.45H26.9a.42.42,0,0,0-.47.47V90.2Z"/><path class="cls-2" d="M26.43,91.19V101.8a1.11,1.11,0,0,1-1.32,1.32H23.57a1.37,1.37,0,0,1-1-.3,1.41,1.41,0,0,1-.3-1V91.19H19.43v10.75a3.63,3.63,0,0,0,1,2.71,3.77,3.77,0,0,0,2.73.94h2.46a3.74,3.74,0,0,0,2.72-1,3.62,3.62,0,0,0,1-2.7V91.19Z"/><rect class="cls-2" x="0.02" y="86.2" width="16.98" height="3.4"/><rect class="cls-2" x="31.69" y="86.2" width="28.25" height="3.4"/></g></g></svg>